<?xml version="1.0" encoding="utf-8"?>
<!-- Generator: Adobe Illustrator 23.0.6, SVG Export Plug-In . SVG Version: 6.00 Build 0)  -->
<svg version="1.1" id="Layer_1" xmlns="http://www.w3.org/2000/svg" xmlns:xlink="http://www.w3.org/1999/xlink" x="0px" y="0px"
	 viewBox="0 0 400 300" style="enable-background:new 0 0 400 300;" xml:space="preserve">
<style type="text/css">
	.st0{fill:#221F1F;}
	.st1{fill:#24898B;}
	.st2{fill:#F4833D;}
	.st3{fill:#808083;}
	.st4{fill:#F9AB7A;}
	.st5{fill:#FFFFFF;}
	.st6{fill:#0B3E40;}
	.st7{fill:#FBC6A6;}
	.st8{fill:#7E7F81;}
	.st9{fill:#A8AAAB;}
	.st10{fill:#E02F75;}
	.st11{fill:#8F69AD;}
	.st12{fill:#D697C2;}
	.st13{fill:#26498C;}
	.st14{fill:#FCB744;}
	.st15{fill:#5CB15C;}
	.st16{fill:#ACD5D8;}
	.st17{fill:#FACBC8;}
	.st18{fill:#F5999B;}
	.st19{fill:#FBC8A8;}
	.st20{fill:#126266;}
	.st21{fill:#CFD1D2;}
	.st22{fill:#F48035;}
	.st23{fill:#919395;}
	.st24{fill:none;}
	.st25{fill:#61C7D5;}
	.st26{fill:#66C8CE;}
	.st27{fill:#198AA3;}
	.st28{fill:#414141;}
	.st29{fill:#FDDC0D;}
	.st30{fill:#F4A721;}
	.st31{fill:#55A4A5;}
	.st32{fill:#9B5B31;}
	.st33{fill:#F1EB65;}
	.st34{fill:#4C2814;}
	.st35{fill:#D0B52B;}
	.st36{fill:#FFDC93;}
	.st37{fill:#A27CB6;}
	.st38{fill:#F7BF17;}
	.st39{fill:#EE8322;}
	.st40{fill:#6D4784;}
	.st41{fill:#EE5DA1;}
	.st42{fill:#290E41;}
	.st43{fill:#895D3B;}
	.st44{fill:#603917;}
	.st45{fill:#FDE662;}
	.st46{fill:#00A44F;}
	.st47{fill:#AF5C28;}
	.st48{fill:#BABCBE;}
	.st49{fill:#6D6F70;}
</style>
<g>
	<path class="st0" d="M298.8,59.7h-24c-2.1,0-3.8-1.7-3.8-3.8V32.6c0-2.1,1.7-3.8,3.8-3.8h24c2.1,0,3.8,1.7,3.8,3.8v23.3
		C302.6,58,300.9,59.7,298.8,59.7z"/>
	<path class="st0" d="M298.8,59.7L298.8,59.7l-24-0.1c-1,0-2-0.4-2.7-1.1c-0.7-0.7-1.1-1.6-1.1-2.7V32.6c0-1,0.4-2,1.1-2.7
		s1.6-1.1,2.7-1.1h24c1,0,2,0.4,2.7,1.1s1.1,1.6,1.1,2.7v23.3c0,1-0.4,2-1.1,2.7C300.8,59.2,299.9,59.7,298.8,59.7L298.8,59.7
		L298.8,59.7c2.1,0.1,3.9-1.7,3.9-3.8V32.6c0-2.1-1.7-3.9-3.9-3.9c-7.7,0-15.5,0-23.2,0h-0.5c-0.3,0-0.3,0-0.3,0
		c-1.6,0-2.8,1.1-2.8,1.1c-0.7,0.7-1.1,1.7-1.1,2.8v23.3c0,2.1,1.7,3.9,3.9,3.9L298.8,59.7L298.8,59.7z"/>
	<path class="st1" d="M294.5,26c-0.8-0.9-1.3-1.8-1.5-2.7c-0.3-1-1.2-1.6-2.2-1.6c-1.3,0-2.6,0-4,0l0,0l0,0l0,0l0,0
		c-1.3,0-2.6,0-4,0c-1,0-1.9,0.7-2.2,1.6c-0.2,0.8-0.7,1.8-1.5,2.7c-1,1.1-2.1,1.6-2.7,1.8h10.3h0.2h10.3
		C296.6,27.5,295.5,27,294.5,26z"/>
	<path class="st1" d="M294.5,62.5c-0.8,0.9-1.3,1.8-1.5,2.7c-0.3,1-1.2,1.6-2.2,1.6c-1.3,0-2.6,0-4,0l0,0l0,0l0,0l0,0
		c-1.3,0-2.6,0-4,0c-1,0-1.9-0.7-2.2-1.6c-0.2-0.8-0.7-1.8-1.5-2.7c-1-1.1-2.1-1.6-2.7-1.8h10.3h0.2h10.3
		C296.6,61,295.5,61.5,294.5,62.5z"/>
	<path class="st2" d="M296.9,57.3h-20.2c-1.8,0-3.2-1.4-3.2-3.2V34.5c0-1.8,1.4-3.2,3.2-3.2h20.2c1.8,0,3.2,1.4,3.2,3.2v19.6
		C300.1,55.8,298.7,57.3,296.9,57.3z"/>
	<path class="st3" d="M296.9,57.3L296.9,57.3l-20.2-0.1c-0.9,0-1.7-0.4-2.2-0.9c-0.6-0.6-0.9-1.4-0.9-2.2V34.5
		c0-0.9,0.4-1.7,0.9-2.2c0.6-0.6,1.4-0.9,2.2-0.9h20.2c0.9,0,1.7,0.4,2.2,0.9c0.6,0.6,0.9,1.4,0.9,2.2v19.6c0,0.9-0.4,1.7-0.9,2.2
		C298.6,56.9,297.8,57.2,296.9,57.3L296.9,57.3L296.9,57.3c1.8,0.1,3.3-1.4,3.3-3.2V34.5c0-1.8-1.5-3.3-3.3-3.3c-6.5,0-13,0-19.5,0
		H277c-0.2,0-0.2,0-0.2,0c-1.3,0-2.3,1-2.3,1c-0.6,0.6-1,1.4-1,2.3v19.6c0,1.8,1.5,3.3,3.3,3.3L296.9,57.3L296.9,57.3z"/>
	<path class="st4" d="M296.4,33.2c-10.6,1.3-17.1,16.4-18.8,20.8c-0.2,0.6,0.2,1.2,0.8,1.2h17.9c0.8,0,1.4-0.6,1.4-1.4V34.7
		C297.8,33.9,297.2,33.2,296.4,33.2z"/>
	<path class="st5" d="M283.7,44.3c0-1.7,1.4-3.1,3.1-3.1s3.1,1.4,3.1,3.1c0,1.7-1.4,3.1-3.1,3.1S283.7,46,283.7,44.3z"/>
	<path class="st6" d="M285.1,50.1c0,0.8-0.6,1.4-1.4,1.4s-1.4-0.6-1.4-1.4s0.6-1.4,1.4-1.4S285.1,49.3,285.1,50.1z"/>
	<circle class="st6" cx="283.7" cy="38.4" r="1.4"/>
	<path class="st6" d="M281.8,44.3c0,0.8-0.6,1.4-1.4,1.4s-1.4-0.6-1.4-1.4c0-0.8,0.6-1.4,1.4-1.4C281.2,42.8,281.8,43.5,281.8,44.3z
		"/>
	<path class="st6" d="M291.3,38.4c0,0.8-0.6,1.4-1.4,1.4s-1.4-0.6-1.4-1.4c0-0.8,0.6-1.4,1.4-1.4C290.7,37,291.3,37.6,291.3,38.4z"
		/>
	<path class="st6" d="M291.6,50.1c0,0.8-0.6,1.4-1.4,1.4s-1.4-0.6-1.4-1.4s0.6-1.4,1.4-1.4S291.6,49.3,291.6,50.1z"/>
	<path class="st6" d="M295,44.3c0,0.8-0.6,1.4-1.4,1.4s-1.4-0.6-1.4-1.4c0-0.8,0.6-1.4,1.4-1.4C294.4,42.8,295,43.5,295,44.3z"/>
	<path class="st4" d="M286.8,14.3c-15.8,0-28.6,12.8-28.6,28.6s12.8,28.6,28.6,28.6c0.1,0,0.1,0,0.2,0L286.8,14.3L286.8,14.3z"/>
	<path class="st7" d="M315.4,42.9c0-15.8-12.8-28.6-28.6-28.6l0.2,57.3C302.7,71.4,315.4,58.6,315.4,42.9z"/>
	<path class="st0" d="M298.8,58.4h-24c-2.1,0-3.8-1.7-3.8-3.8V31.2c0-2.1,1.7-3.8,3.8-3.8h24c2.1,0,3.8,1.7,3.8,3.8v23.3
		C302.6,56.7,300.9,58.4,298.8,58.4z"/>
	<path class="st0" d="M298.8,58.4L298.8,58.4l-24-0.1c-1,0-2-0.4-2.7-1.1s-1.1-1.6-1.1-2.7V31.2c0-1,0.4-2,1.1-2.7s1.6-1.1,2.7-1.1
		h24c1,0,2,0.4,2.7,1.1s1.1,1.6,1.1,2.7v23.3c0,1-0.4,2-1.1,2.7S299.9,58.3,298.8,58.4L298.8,58.4L298.8,58.4
		c2.1,0.1,3.9-1.7,3.9-3.8V31.2c0-2.1-1.7-3.9-3.9-3.9c-7.7,0-15.5,0-23.2,0h-0.5c-0.3,0-0.3,0-0.3,0c-1.6,0-2.8,1.1-2.8,1.1
		c-0.7,0.7-1.1,1.7-1.1,2.8v23.3c0,2.1,1.7,3.9,3.9,3.9L298.8,58.4L298.8,58.4z"/>
	<path class="st1" d="M294.5,24.6c-0.8-0.9-1.3-1.8-1.5-2.7c-0.3-1-1.2-1.6-2.2-1.6c-1.3,0-2.6,0-4,0l0,0l0,0l0,0l0,0
		c-1.3,0-2.6,0-4,0c-1,0-1.9,0.7-2.2,1.6c-0.2,0.8-0.7,1.8-1.5,2.7c-1,1.1-2.1,1.6-2.7,1.8h10.3h0.2h10.3
		C296.6,26.2,295.5,25.7,294.5,24.6z"/>
	<path class="st1" d="M294.5,61.2c-0.8,0.9-1.3,1.8-1.5,2.7c-0.3,1-1.2,1.6-2.2,1.6c-1.3,0-2.6,0-4,0l0,0l0,0l0,0l0,0
		c-1.3,0-2.6,0-4,0c-1,0-1.9-0.7-2.2-1.6c-0.2-0.8-0.7-1.8-1.5-2.7c-1-1.1-2.1-1.6-2.7-1.8h10.3h0.2h10.3
		C296.6,59.6,295.5,60.1,294.5,61.2z"/>
	<path class="st8" d="M296.9,55.9h-20.2c-1.8,0-3.2-1.4-3.2-3.2V33.1c0-1.8,1.4-3.2,3.2-3.2h20.2c1.8,0,3.2,1.4,3.2,3.2v19.6
		C300.1,54.5,298.7,55.9,296.9,55.9z"/>
	<path class="st3" d="M296.9,55.9L296.9,55.9l-20.2-0.1c-0.9,0-1.7-0.4-2.2-0.9c-0.6-0.6-0.9-1.4-0.9-2.2V33.1
		c0-0.9,0.4-1.7,0.9-2.2c0.6-0.6,1.4-0.9,2.2-0.9h20.2c0.9,0,1.7,0.4,2.2,0.9c0.6,0.6,0.9,1.4,0.9,2.2v19.6c0,0.9-0.4,1.7-0.9,2.2
		C298.6,55.5,297.8,55.8,296.9,55.9L296.9,55.9L296.9,55.9c1.8,0.1,3.3-1.4,3.3-3.2V33.1c0-1.8-1.5-3.3-3.3-3.3c-6.5,0-13,0-19.5,0
		H277c-0.2,0-0.2,0-0.2,0c-1.3,0-2.3,1-2.3,1c-0.6,0.6-1,1.4-1,2.3v19.6c0,1.8,1.5,3.3,3.3,3.3L296.9,55.9L296.9,55.9z"/>
	<path class="st9" d="M296.4,31.9c-10.6,1.3-17.1,16.4-18.8,20.8c-0.2,0.6,0.2,1.2,0.8,1.2h17.9c0.8,0,1.4-0.6,1.4-1.4V33.3
		C297.8,32.5,297.2,31.9,296.4,31.9z"/>
	<path class="st5" d="M283.7,42.9c0-1.7,1.4-3.1,3.1-3.1s3.1,1.4,3.1,3.1c0,1.7-1.4,3.1-3.1,3.1S283.7,44.6,283.7,42.9z"/>
	<path class="st10" d="M285.1,48.8c0,0.8-0.6,1.4-1.4,1.4s-1.4-0.6-1.4-1.4c0-0.8,0.6-1.4,1.4-1.4C284.5,47.3,285.1,48,285.1,48.8z"
		/>
	<circle class="st11" cx="283.7" cy="37" r="1.4"/>
	<path class="st12" d="M281.8,42.9c0,0.8-0.6,1.4-1.4,1.4s-1.4-0.6-1.4-1.4c0-0.8,0.6-1.4,1.4-1.4C281.2,41.5,281.8,42.1,281.8,42.9
		z"/>
	<path class="st13" d="M291.3,37c0,0.8-0.6,1.4-1.4,1.4s-1.4-0.6-1.4-1.4s0.6-1.4,1.4-1.4S291.3,36.2,291.3,37z"/>
	<path class="st14" d="M291.6,48.8c0,0.8-0.6,1.4-1.4,1.4s-1.4-0.6-1.4-1.4c0-0.8,0.6-1.4,1.4-1.4C291,47.3,291.6,48,291.6,48.8z"/>
	<path class="st15" d="M295,42.9c0,0.8-0.6,1.4-1.4,1.4s-1.4-0.6-1.4-1.4c0-0.8,0.6-1.4,1.4-1.4C294.4,41.5,295,42.1,295,42.9z"/>
	<path class="st16" d="M141.5,42.9c0,15.7-12.7,28.5-28.4,28.6c-0.1,0-0.1,0-0.2,0c-0.9,0-1.7,0-2.5-0.1
		c-14.7-1.3-26.2-13.6-26.2-28.5c0-15.8,12.8-28.6,28.6-28.6l0,0c13.2,0,24.2,8.9,27.6,21C141.1,37.7,141.5,40.2,141.5,42.9z"/>
	<path class="st17" d="M199.5,14.3c-15.8,0-28.6,12.8-28.6,28.6s12.8,28.6,28.6,28.6c0.1,0,0.1,0,0.2,0L199.5,14.3L199.5,14.3z"/>
	<path class="st17" d="M226.4,258.2c0,15.7-12.7,28.5-28.4,28.6c-0.1,0-0.1,0-0.2,0c-0.2,0-0.5,0-0.7,0c-15.5-0.4-27.9-13-27.9-28.6
		c0-15.8,12.8-28.6,28.6-28.6l0,0c13.8,0,25.3,9.8,28,22.8C226.2,254.3,226.4,256.2,226.4,258.2z"/>
	<path class="st18" d="M228.1,42.9c0-15.8-12.8-28.6-28.6-28.6l0.2,57.3C215.4,71.4,228.1,58.6,228.1,42.9z"/>
	<path class="st19" d="M138.7,258.2c0,4.8-1.2,9.4-3.3,13.4c-1.5,2.8-3.4,5.4-5.7,7.5c-5.1,4.8-11.9,7.7-19.4,7.7
		c-0.1,0-0.1,0-0.2,0c-15.8,0-28.6-12.8-28.6-28.6s12.8-28.6,28.6-28.6l0,0C125.9,229.6,138.7,242.4,138.7,258.2z"/>
	<path class="st0" d="M211.5,58.4h-24c-2.1,0-3.8-1.7-3.8-3.8V31.2c0-2.1,1.7-3.8,3.8-3.8h24c2.1,0,3.8,1.7,3.8,3.8v23.3
		C215.3,56.7,213.6,58.4,211.5,58.4z"/>
	<path class="st0" d="M211.5,58.4L211.5,58.4l-24-0.1c-1,0-2-0.4-2.7-1.1s-1.1-1.6-1.1-2.7V31.2c0-1,0.4-2,1.1-2.7
		c0.7-0.7,1.6-1.1,2.7-1.1h24c1,0,2,0.4,2.7,1.1s1.1,1.6,1.1,2.7v23.3c0,1-0.4,2-1.1,2.7C213.4,57.9,212.5,58.3,211.5,58.4
		L211.5,58.4L211.5,58.4c2.1,0.1,3.9-1.7,3.9-3.8V31.2c0-2.1-1.7-3.9-3.9-3.9c-7.7,0-15.5,0-23.2,0h-0.5c-0.3,0-0.3,0-0.3,0
		c-1.6,0-2.8,1.1-2.8,1.1c-0.7,0.7-1.1,1.7-1.1,2.8v23.3c0,2.1,1.7,3.9,3.9,3.9L211.5,58.4L211.5,58.4z"/>
	<path class="st20" d="M207.2,24.6c-0.8-0.9-1.3-1.8-1.5-2.7c-0.3-1-1.2-1.6-2.2-1.6c-1.3,0-2.6,0-4,0l0,0l0,0l0,0l0,0
		c-1.3,0-2.6,0-4,0c-1,0-1.9,0.7-2.2,1.6c-0.2,0.8-0.7,1.8-1.5,2.7c-1,1.1-2.1,1.6-2.7,1.8h10.3h0.2h10.3
		C209.3,26.2,208.2,25.7,207.2,24.6z"/>
	<path class="st20" d="M207.2,61.2c-0.8,0.9-1.3,1.8-1.5,2.7c-0.3,1-1.2,1.6-2.2,1.6c-1.3,0-2.6,0-4,0l0,0l0,0l0,0l0,0
		c-1.3,0-2.6,0-4,0c-1,0-1.9-0.7-2.2-1.6c-0.2-0.8-0.7-1.8-1.5-2.7c-1-1.1-2.1-1.6-2.7-1.8h10.3h0.2h10.3
		C209.3,59.6,208.2,60.1,207.2,61.2z"/>
	<path class="st3" d="M209.5,55.9h-20.2c-1.8,0-3.2-1.4-3.2-3.2V33.1c0-1.8,1.4-3.2,3.2-3.2h20.2c1.8,0,3.2,1.4,3.2,3.2v19.6
		C212.8,54.5,211.3,55.9,209.5,55.9z"/>
	<path class="st21" d="M209,31.9c-10.6,1.3-17.1,16.4-18.8,20.8c-0.2,0.6,0.2,1.2,0.8,1.2h17.9c0.8,0,1.4-0.6,1.4-1.4V33.3
		C210.5,32.5,209.8,31.9,209,31.9z"/>
	<path class="st22" d="M196.3,42.9c0-1.7,1.4-3.1,3.1-3.1c1.7,0,3.1,1.4,3.1,3.1c0,1.7-1.4,3.1-3.1,3.1
		C197.7,46,196.3,44.6,196.3,42.9z"/>
	<path class="st6" d="M197.8,48.8c0,0.8-0.6,1.4-1.4,1.4c-0.8,0-1.4-0.6-1.4-1.4c0-0.8,0.6-1.4,1.4-1.4
		C197.1,47.3,197.8,48,197.8,48.8z"/>
	<path class="st6" d="M197.8,37c0,0.8-0.6,1.4-1.4,1.4c-0.8,0-1.4-0.6-1.4-1.4s0.6-1.4,1.4-1.4C197.1,35.6,197.8,36.2,197.8,37z"/>
	<path class="st6" d="M194.5,42.9c0,0.8-0.6,1.4-1.4,1.4c-0.8,0-1.4-0.6-1.4-1.4c0-0.8,0.6-1.4,1.4-1.4
		C193.8,41.5,194.5,42.1,194.5,42.9z"/>
	<path class="st6" d="M204,37c0,0.8-0.6,1.4-1.4,1.4c-0.8,0-1.4-0.6-1.4-1.4s0.6-1.4,1.4-1.4C203.3,35.6,204,36.2,204,37z"/>
	<path class="st6" d="M204.2,48.8c0,0.8-0.6,1.4-1.4,1.4c-0.8,0-1.4-0.6-1.4-1.4c0-0.8,0.6-1.4,1.4-1.4
		C203.6,47.3,204.2,48,204.2,48.8z"/>
	<path class="st6" d="M207.6,42.9c0,0.8-0.6,1.4-1.4,1.4c-0.8,0-1.4-0.6-1.4-1.4c0-0.8,0.6-1.4,1.4-1.4
		C207,41.5,207.6,42.1,207.6,42.9z"/>
	<path class="st2" d="M135.4,259.6v12c-1.5,2.8-3.4,5.4-5.7,7.5c-0.1,0-0.3,0-0.4,0h-27.9c-2.5,0-4.6-1.5-5.6-3.6
		c-0.4-0.8-0.6-1.7-0.6-2.6v-13.4c0-2.3,1.3-4.4,3.2-5.4v-2c0-0.3,0.2-0.5,0.5-0.5h1.9c0.3,0,0.5,0.2,0.5,0.5v1.2l0,0h1v-2.8
		c0-2.1,1.7-3.8,3.8-3.8h18.1c0.5,0,1,0.1,1.4,0.3c1.4,0.6,2.4,1.9,2.4,3.5v2.8h1.1c0.1,0,0.2,0,0.3,0
		C132.8,253.6,135.4,256.3,135.4,259.6z"/>
	<path class="st1" d="M124,249.9h-1.1v-2.8c0-2.1-1.7-3.8-3.8-3.8H101c-2.1,0-3.8,1.7-3.8,3.8v2.8h-1l0,0v-1.2
		c0-0.3-0.2-0.5-0.5-0.5h-1.9c-0.3,0-0.5,0.2-0.5,0.5v2c-1.9,1-3.2,3.1-3.2,5.4v13.4c0,3.4,2.7,6.1,6.1,6.1H124
		c3.4,0,6.1-2.7,6.1-6.1v-13.4C130.2,252.7,127.4,249.9,124,249.9z"/>
	
		<ellipse transform="matrix(0.8507 -0.5257 0.5257 0.8507 -120.9994 96.9274)" class="st0" cx="110.1" cy="261.5" rx="9.7" ry="9.7"/>
	<circle class="st23" cx="110.1" cy="261.4" r="7.6"/>
	<path class="st0" d="M125,254.6c0,1.2-1,2.1-2.1,2.1c-1.2,0-2.1-1-2.1-2.1c0-1.2,1-2.1,2.1-2.1S125,253.4,125,254.6z"/>
	<line class="st24" x1="127.4" y1="240" x2="124" y2="243.4"/>
	<path class="st6" d="M127.4,240c-0.1,0.5-0.3,0.9-0.5,1.2c-0.2,0.4-0.5,0.7-0.8,1s-0.6,0.5-1,0.8c-0.4,0.2-0.7,0.4-1.2,0.5
		c0.1-0.5,0.3-0.9,0.5-1.2c0.2-0.4,0.5-0.7,0.8-1s0.6-0.5,1-0.8C126.6,240.3,127,240.1,127.4,240z"/>
	<path class="st6" d="M117.2,238.5c0.4,0.3,0.7,0.6,0.9,0.9c0.2,0.3,0.4,0.7,0.6,1c0.2,0.4,0.3,0.7,0.3,1.1c0.1,0.4,0.1,0.8,0,1.3
		c-0.4-0.3-0.7-0.6-0.9-0.9c-0.2-0.3-0.4-0.7-0.6-1c-0.2-0.4-0.3-0.7-0.3-1.1C117.2,239.4,117.2,239,117.2,238.5z"/>
	<line class="st24" x1="133.1" y1="250.4" x2="125" y2="248.5"/>
	<path class="st6" d="M133.1,250.4c-0.7,0.1-1.4,0.1-2.1,0s-1.4-0.2-2.1-0.3c-0.7-0.2-1.3-0.4-2-0.6c-0.7-0.3-1.3-0.5-1.9-1
		c0.7-0.1,1.4-0.1,2.1,0s1.4,0.2,2.1,0.3c0.7,0.2,1.3,0.4,2,0.6C131.8,249.7,132.5,250,133.1,250.4z"/>
	<polygon class="st25" points="133.1,244 123.9,248 124.3,252 120.9,249.9 117.2,251.6 118.1,247.6 115.4,244.6 119.4,244.3 
		121.9,234.2 123,244.5 	"/>
	<path class="st21" d="M106.4,257.1c-0.2,0.1-1.1,0.4-1.6,1.3c-0.5,0.8-0.4,1.6-0.3,1.9"/>
	<path class="st5" d="M106.1,256.3c-0.1,0-0.2,0.1-0.3,0.1c-0.2,0.1-0.5,0.3-0.8,0.5c-0.3,0.3-0.6,0.6-0.9,1c-0.2,0.4-0.3,0.7-0.4,1
		s-0.1,0.6-0.1,0.9c0,0.2,0,0.4,0,0.5c0.1,0.5,0.5,0.8,1,0.7c0.5-0.1,0.8-0.5,0.7-1c0-0.1,0-0.2,0-0.3c0-0.1,0-0.3,0.1-0.5
		c0-0.2,0.1-0.4,0.2-0.5c0.1-0.2,0.2-0.3,0.3-0.4c0.2-0.2,0.3-0.3,0.5-0.4c0.1,0,0.1-0.1,0.2-0.1s0.1,0,0.1,0
		c0.5-0.2,0.7-0.7,0.5-1.1C107.1,256.4,106.6,256.2,106.1,256.3L106.1,256.3z"/>
	<path class="st18" d="M226.4,258.2c0,15.7-12.7,28.5-28.4,28.6c-0.1,0-0.1,0-0.2,0c-0.2,0-0.5,0-0.7,0l-1.7-34.6l30.5,0.2
		C226.2,254.3,226.4,256.2,226.4,258.2z"/>
	<path class="st26" d="M204.9,282h-13.7c-1.5,0-2.7-1.1-2.7-2.5l-1.5-30.8l21.5,0.1l-1,30.6C207.5,280.9,206.3,282,204.9,282z"/>
	<path class="st27" d="M204.8,282h-13.5c-1.5,0-2.6-0.9-2.6-2.1l-1.3-25.6h21l-0.9,25.6C207.5,281.1,206.3,282,204.8,282z"/>
	<path class="st28" d="M201.4,263.2l2-18.4l5.8-6.1c0.5-0.5,0.5-1.3,0-1.8s-1.3-0.5-1.8,0l-6.4,6.7l-2.1,19.2
		c-0.1,0.7,0.4,1.3,1.1,1.4C200.7,264.4,201.3,263.9,201.4,263.2L201.4,263.2z"/>
	<path class="st29" d="M197.2,251.1c-0.2,0.2-0.5,0.4-0.7,0.6c-2.2,1.5-5.2,1.2-7.1-0.7c-2.1-2.2-2.1-5.7,0.1-7.8l0,0L197.2,251.1z"
		/>
	<path class="st30" d="M197.1,251.2c-0.2,0.2-0.4,0.3-0.6,0.5c-2.2,1.5-5.2,1.2-7.1-0.7c-2.1-2.2-2.1-5.6,0-7.7
		c-0.7,2.1-0.3,4.6,1.4,6.3C192.5,251.3,194.9,251.9,197.1,251.2z"/>
	<circle class="st5" cx="194.3" cy="267.2" r="1.8"/>
	<path class="st5" d="M200.8,270.5c0,0.6-0.5,1.1-1.1,1.1s-1.1-0.5-1.1-1.1s0.5-1.1,1.1-1.1C200.3,269.3,200.8,269.8,200.8,270.5z"
		/>
	<circle class="st5" cx="195.2" cy="271.8" r="0.9"/>
	<path class="st5" d="M192.5,271.8c0,0.5-0.4,0.9-0.9,0.9s-0.9-0.4-0.9-0.9s0.4-0.9,0.9-0.9C192.1,270.9,192.5,271.3,192.5,271.8z"
		/>
	<path class="st5" d="M195.6,275.3c0,0.4-0.4,0.8-0.8,0.8c-0.4,0-0.8-0.4-0.8-0.8s0.4-0.8,0.8-0.8
		C195.2,274.5,195.6,274.9,195.6,275.3z"/>
	<path class="st31" d="M141.5,42.9c0,15.7-12.7,28.5-28.4,28.6c-0.1,0-0.1,0-0.2,0c-0.9,0-1.7,0-2.5-0.1l-10.9-7.5
		c-0.9-0.6-1.1-1.8-0.5-2.7l24.2-35.4c0.6-0.9,1.8-1.1,2.7-0.5l14.6,10C141.1,37.7,141.5,40.2,141.5,42.9z"/>
	<path class="st32" d="M103.1,24.7v-0.5h-2.6c-1.9,0-3.5,1.6-3.5,3.5v32.7c0,1.9,1.6,3.5,3.5,3.5h22.9c1.9,0,3.5-1.6,3.5-3.5V27.7
		c0-1.9-1.6-3.5-3.5-3.5h-3.8"/>
	<path class="st33" d="M114.2,21.7L114.2,21.7c0-1.6-1.3-2.8-2.8-2.8c-1.6,0-2.8,1.3-2.8,2.8"/>
	<path class="st34" d="M103.3,59.3c0,0.4,0.2,0.8,0.6,1.1c0.3,0.3,0.8,0.4,1.3,0.4h14.2c0.5,0,1-0.2,1.3-0.4
		c0.3-0.3,0.6-0.7,0.6-1.1v-0.2c0-0.1,0-0.2,0-0.3v-0.1h-0.1c-0.3-0.1-0.7-0.2-1.1-0.2h-15.6c-0.4,0-0.8,0.1-1.1,0.2h-0.1v0.1
		c0,0.1,0,0.2,0,0.3L103.3,59.3"/>
	<path class="st5" d="M120.7,58.8c1.9,0,3.4-1.5,3.4-3.4V32.8c0-1.9-1.5-3.4-3.4-3.4h-17.4c-1.9,0-3.4,1.5-3.4,3.4v22.6
		c0,1.9,1.5,3.4,3.4,3.4L120.7,58.8"/>
	<path class="st1" d="M101.9,51.8c2.3,2.3,2.3,2.3,2.3,2.3c0.1,0.1,0.2,0.2,0.4,0.2s0.3-0.1,0.4-0.2l1.4-1.4c0.2-0.2,0.2-0.5,0-0.7
		c-0.2-0.2-0.5-0.2-0.7,0l-1.5,1.4l0.4,0.4l0.4-0.4c0,0,0,0-2.3-2.3c-0.2-0.2-0.5-0.2-0.7,0C101.6,51.3,101.6,51.6,101.9,51.8z"/>
	<path class="st1" d="M101.9,43.8c2.3,2.3,2.3,2.3,2.3,2.3c0.1,0.1,0.2,0.2,0.4,0.2s0.3-0.1,0.4-0.2l1.4-1.4c0.2-0.2,0.2-0.5,0-0.7
		c-0.2-0.2-0.5-0.2-0.7,0l-1.5,1.4l0.4,0.4l0.4-0.4c0,0,0,0-2.3-2.3c-0.2-0.2-0.5-0.2-0.7,0C101.6,43.2,101.6,43.6,101.9,43.8
		L101.9,43.8z"/>
	<path class="st1" d="M101.2,35.8c2.3,2.3,2.3,2.3,2.3,2.3c0.1,0.1,0.2,0.2,0.4,0.2c0.1,0,0.3-0.1,0.4-0.2l1.4-1.4
		c0.2-0.2,0.2-0.5,0-0.7c-0.2-0.2-0.5-0.2-0.7,0l-1.4,1.4l0.4,0.4l0.4-0.4c0,0,0,0-2.3-2.3c-0.2-0.2-0.5-0.2-0.7,0
		C101.2,35.3,101,35.5,101.2,35.8L101.2,35.8z"/>
	<path class="st16" d="M112.8,21.6c0-0.7-0.6-1.3-1.4-1.3c-0.7,0-1.3,0.6-1.4,1.3"/>
	<path class="st33" d="M119.7,23.5v2.7c0,0.4-0.1,0.7-0.3,1c-0.2,0.3-0.5,0.6-0.8,0.8c-0.3,0.1-0.6,0.2-0.9,0.2H105
		c-0.3,0-0.7-0.1-0.9-0.2c-0.4-0.2-0.7-0.5-0.9-0.8c-0.2-0.3-0.2-0.6-0.2-1v-2.7c0-1.1,0.9-2,2-2h12.7
		C118.8,21.5,119.7,22.4,119.7,23.5z"/>
	<path class="st35" d="M119.5,27.2c-0.2,0.3-0.5,0.6-0.8,0.8c-0.3,0.1-0.6,0.2-0.9,0.2H105c-0.3,0-0.7-0.1-0.9-0.2
		c-0.4-0.2-0.7-0.5-0.9-0.8c0.2-0.7,0.9-1.2,1.7-1.2h12.9C118.6,26,119.3,26.5,119.5,27.2z"/>
	<path class="st6" d="M119.6,53.8V54c0.4,0,0.7-0.3,0.7-0.7v-0.7c0-0.4-0.3-0.7-0.7-0.7h-11.8c-0.4,0-0.7,0.3-0.7,0.7v0.7
		c0,0.4,0.3,0.7,0.7,0.7h11.8V53.8v-0.2"/>
	<path class="st6" d="M119.5,45.9c0.4,0,0.7-0.3,0.7-0.7v-0.7c0-0.4-0.3-0.7-0.7-0.7h-11.8c-0.4,0-0.7,0.3-0.7,0.7v0.7
		c0,0.4,0.3,0.7,0.7,0.7H119.5"/>
	<path class="st6" d="M119.5,37.9c0.4,0,0.7-0.3,0.7-0.7v-0.7c0-0.4-0.3-0.7-0.7-0.7h-11.8c-0.4,0-0.7,0.3-0.7,0.7v0.7
		c0,0.4,0.3,0.7,0.7,0.7H119.5"/>
	<path class="st16" d="M138.9,151.3c0,2.5-0.3,5-1,7.3c-3.2,12.2-14.3,21.2-27.5,21.3c-0.1,0-0.1,0-0.2,0c-0.4,0-0.9,0-1.3,0
		s-0.8,0-1.2-0.1c-14.6-1.3-26.1-13.6-26.1-28.5c0-15.8,12.8-28.6,28.6-28.6l0,0c13.2,0,24.2,8.9,27.6,21c0.3,1,0.5,2.1,0.7,3.2
		C138.8,148.3,138.9,149.8,138.9,151.3z"/>
	<path class="st36" d="M138.9,151.3c0,2.5-0.3,5-1,7.3c-3.2,12.2-14.3,21.2-27.5,21.3c-0.1,0-0.1,0-0.2,0c-0.4,0-0.9,0-1.3,0
		l-4.8-6.6v-1.6l0.5-0.3l-0.5-1V169l0.5-0.3l-0.5-1v-1.2l0.5-0.3l-0.5-1v-10l20.3-15.1l14,6.7C138.8,148.3,138.9,149.8,138.9,151.3z
		"/>
	<path class="st37" d="M227.7,152.9c0,2.5-0.3,5-1,7.3c-0.7,2.6-1.7,5-3,7.2c-3.3,5.5-8.3,9.8-14.3,12.2c-3.1,1.2-6.6,1.9-10.1,1.9
		c-0.1,0-0.1,0-0.2,0c-0.4,0-0.9,0-1.3,0c-0.4,0-0.8,0-1.2-0.1c-1.1-0.1-2.3-0.3-3.4-0.5c-13-2.7-22.7-14.2-22.7-28
		c0-15.8,12.8-28.6,28.6-28.6l0,0c1.9,0,3.7,0.2,5.5,0.5c8.4,1.7,15.5,7,19.5,14.3c1.1,1.9,1.9,4,2.5,6.2
		C227.3,147.7,227.7,150.3,227.7,152.9z"/>
	<path class="st38" d="M110.9,128.5c-0.2,0-0.4,0-0.6,0s-0.4,0-0.6,0c-7.9,0.3-14.2,6.9-14.2,14.9c0,4.6,2.2,8.3,5.2,10.9
		c1.7,1.4,2.8,3.4,3,5.6c0.1,0.7,0.1,1.5,0,2.2h6.6h6.6c-0.1-0.8-0.1-1.5,0-2.2c0.2-2.2,1.4-4.1,3-5.6c3-2.6,5.2-6.3,5.2-10.9
		c0-4.1-1.9-8.5-5.4-11.5c-0.4-0.3-0.8-0.6-1.2-0.9C118.5,131.1,115,128.7,110.9,128.5z"/>
	<path class="st39" d="M121.3,133.5c0.4,1.5,0.5,3,0.5,4.5c0,6.1-2.9,11-6.9,14.4c-2.2,1.9-3.7,4.5-4,7.3c-0.1,0.8-0.1,1.6,0,2.4
		h5.9c-0.1-0.8-0.1-1.5,0-2.2c0.2-2.2,1.4-4.1,3-5.6c3-2.6,5.2-6.3,5.2-10.9C125.1,140,123.8,136.3,121.3,133.5z"/>
	<path class="st6" d="M116.1,165.3h-11.6c-0.5,0-0.8-0.4-0.8-0.8v-0.4c0-0.5,0.4-0.8,0.8-0.8h11.6c0.5,0,0.8,0.4,0.8,0.8v0.4
		C116.9,164.9,116.6,165.3,116.1,165.3z"/>
	<path class="st6" d="M116.1,167.9h-11.6c-0.5,0-0.8-0.4-0.8-0.8v-0.4c0-0.5,0.4-0.8,0.8-0.8h11.6c0.5,0,0.8,0.4,0.8,0.8v0.4
		C116.9,167.5,116.6,167.9,116.1,167.9z"/>
	<path class="st6" d="M116.1,170.5h-11.6c-0.5,0-0.8-0.4-0.8-0.8v-0.4c0-0.5,0.4-0.8,0.8-0.8h11.6c0.5,0,0.8,0.4,0.8,0.8v0.4
		C116.9,170.1,116.6,170.5,116.1,170.5z"/>
	<path class="st6" d="M113.6,175.3h-6.5c-1.9,0-3.4-1.5-3.4-3.4c0-0.5,0.4-0.8,0.8-0.8h11.6c0.5,0,0.8,0.4,0.8,0.8
		C116.9,173.8,115.4,175.3,113.6,175.3z"/>
	<path class="st5" d="M110.7,133.4c0,1.4-1.1,2.5-2.5,2.5s-2.5-1.1-2.5-2.5s1.1-2.5,2.5-2.5S110.7,132,110.7,133.4z"/>
	<path class="st5" d="M104.5,138.4c0.9-0.9,1-2.4,0.1-3.3c-0.9-0.9-2.4-0.9-3.3,0s-3.1,3.3-3.4,7.1c-0.4,4.4,2.1,7.5,2.8,8.3
		c0.6,0.7,1.5,0.9,2.3,0.7c0.4-0.1,0.7-0.3,1-0.5c1-0.9,1.1-2.3,0.2-3.3c-0.4-0.5-1.9-2.3-1.7-4.9
		C102.7,140.4,104,138.9,104.5,138.4z"/>
	<path class="st40" d="M224.1,139.1v25c0,1.2-0.1,2.3-0.4,3.3c-3.3,5.5-8.3,9.8-14.3,12.2H193V179c0-1.2,0.2-2.3,0.7-3.3
		c0.3-0.7,0.7-1.4,1.3-2c0.6-0.8,1.4-1.4,2.3-1.9c0.4-0.2,0.9-0.4,1.3-0.6c0.1,0,0.1-0.1,0.2-0.1c-0.7-1.2-1.3-2.6-1.6-4
		c-0.1-0.5-0.2-1-0.2-1.5l0,0c0-0.5-0.1-1-0.1-1.4v-27c0-0.1,0-0.3,0-0.4c0-0.1,0-0.3,0-0.4l0,0c0-0.1,0-0.1,0-0.2v-0.1
		c0-0.1,0-0.1,0-0.2c0-0.1,0-0.2,0-0.4c0-0.1,0-0.2,0-0.3s0-0.2,0.1-0.3c0-0.2,0.1-0.4,0.1-0.6c0-0.1,0-0.2,0.1-0.3
		c0-0.1,0-0.1,0.1-0.2v-0.1c0-0.1,0-0.2,0.1-0.2c0-0.1,0-0.2,0.1-0.2c0-0.1,0.1-0.2,0.1-0.2c0-0.1,0.1-0.2,0.1-0.3
		c0.1-0.2,0.1-0.4,0.2-0.6c0.2-0.5,0.5-1.1,0.8-1.6c0-0.1,0.1-0.2,0.1-0.2c0.6-1,1.3-1.9,2.2-2.7c0.1-0.1,0.1-0.1,0.2-0.2
		c0.1-0.1,0.3-0.2,0.4-0.4c0.1,0,0.1-0.1,0.2-0.1c0.3-0.2,0.6-0.5,0.9-0.7c0.2-0.2,0.5-0.3,0.7-0.5c0.1-0.1,0.2-0.1,0.3-0.2
		c0.1,0,0.2-0.1,0.3-0.1l0,0c0.1,0,0.1-0.1,0.2-0.1c0.1-0.1,0.3-0.2,0.5-0.2C213,126.5,220.1,131.8,224.1,139.1z"/>
	<path class="st41" d="M207.6,140.3v16.9c0,4.7-3.8,8.5-8.5,8.5s-8.5-3.8-8.5-8.5v-16.9c0-0.1,0-0.2,0-0.3s0-0.2,0-0.3l0,0
		c0-0.1,0-0.1,0-0.2v-0.1c0-0.1,0-0.1,0-0.2c0-0.1,0-0.1,0-0.2c0-0.1,0-0.1,0-0.2c0-0.1,0-0.2,0.1-0.4c0-0.1,0-0.1,0-0.2v-0.1V138
		v-0.1c0-0.1,0-0.1,0-0.2c0-0.1,0-0.1,0.1-0.2c0-0.1,0-0.1,0.1-0.2c0.2-0.5,0.4-0.9,0.6-1.4c0-0.1,0.1-0.1,0.1-0.2
		c0.4-0.6,0.8-1.2,1.4-1.7l0.1-0.1c0.1-0.1,0.2-0.2,0.3-0.2l0.1-0.1c0.2-0.2,0.4-0.3,0.6-0.4c0.1-0.1,0.3-0.2,0.5-0.3
		c0.1,0,0.1-0.1,0.2-0.1c0.1,0,0.1-0.1,0.2-0.1l0,0c0,0,0.1,0,0.1-0.1c0.1-0.1,0.3-0.1,0.4-0.2c0,0,0.1,0,0.1-0.1
		c0.1,0,0.1-0.1,0.2-0.1c0.1,0,0.1,0,0.2-0.1c0.1,0,0.2-0.1,0.3-0.1h0.1c0.1,0,0.2-0.1,0.2-0.1c0.1,0,0.2,0,0.2-0.1
		c0.1,0,0.2-0.1,0.4-0.1h0.1h0.1h0.1h0.1l0,0c0.1,0,0.1,0,0.2,0c0.1,0,0.1,0,0.2,0l0,0h0.1h0.1l0,0c0.1,0,0.1,0,0.2,0
		c0.1,0,0.1,0,0.2,0c0.1,0,0.1,0,0.2,0c2.4,0,4.5,1,6,2.5C206.6,135.8,207.6,138,207.6,140.3z"/>
	<path class="st21" d="M205.3,141.9v12.4c0,3.5-2.8,6.2-6.3,6.2s-6.3-2.8-6.3-6.2v-12.4c0-0.1,0-0.1,0-0.2c0-0.1,0-0.1,0-0.2l0,0
		v-0.1v-0.1c0-0.1,0-0.1,0-0.2c0-0.1,0-0.1,0-0.2c0-0.1,0-0.1,0-0.2c0-0.1,0-0.2,0.1-0.3v-0.1v-0.1c0,0,0,0,0-0.1V140v-0.1v-0.1
		v-0.1c0.1-0.3,0.3-0.7,0.5-1c0,0,0-0.1,0.1-0.1c0.3-0.5,0.6-0.9,1-1.3l0.1-0.1c0.1-0.1,0.1-0.1,0.2-0.2c0,0,0,0,0.1-0.1
		s0.3-0.2,0.4-0.3c0.1-0.1,0.2-0.1,0.3-0.2c0,0,0.1,0,0.1-0.1c0,0,0.1,0,0.1-0.1l0,0c0,0,0.1,0,0.1-0.1c0.1-0.1,0.2-0.1,0.3-0.1h0.1
		c0,0,0.1,0,0.1-0.1c0,0,0.1,0,0.1-0.1c0.1,0,0.2-0.1,0.3-0.1c0,0,0,0,0.1,0s0.1,0,0.2-0.1c0.1,0,0.1,0,0.2,0c0.1,0,0.2,0,0.3-0.1
		h0.1h0.1c0,0,0,0,0.1,0h0.1l0,0h0.1h0.1l0,0h0.1h0.1l0,0h0.1h0.1h0.1c1.7,0,3.3,0.7,4.4,1.8C204.6,138.6,205.3,140.2,205.3,141.9z"
		/>
	<path class="st21" d="M212.8,154.1c0,0.5-0.2,0.9-0.5,1.2s-0.7,0.5-1.2,0.5l0,0v1.6c0,5.3-3.5,9.9-8.3,11.4v0.7
		c0,0.9-0.7,1.6-1.6,1.6H197c-0.9,0-1.6-0.7-1.6-1.6v-0.7c-4.8-1.6-8.3-6.1-8.3-11.4v-1.6l0,0c-0.9,0-1.7-0.8-1.7-1.7
		c0-0.5,0.2-0.9,0.5-1.2s0.7-0.5,1.2-0.5h2.1v4.8c0,5.5,4.5,10,10,10s10-4.5,10-10v-4.8h2.1C212,152.4,212.8,153.2,212.8,154.1z"/>
	<path class="st21" d="M206.6,175.4v0.3h-15.3v-0.3c0-2,1.6-3.7,3.7-3.7h7.9C205,171.8,206.6,173.4,206.6,175.4z"/>
	<path class="st23" d="M206.5,175.7h-15c0.6-1.2,1.8-2,3.3-2h8.5C204.7,173.7,205.9,174.5,206.5,175.7z"/>
	<path class="st0" d="M195.6,140.7c0,0.4-0.2,0.7-0.4,1c-0.3,0.3-0.6,0.4-1,0.4h-3.7v-1.8c0-0.4,0-0.7,0.1-1.1h3.6
		C194.9,139.2,195.6,139.9,195.6,140.7z"/>
	<path class="st0" d="M195.6,144.4c0,0.4-0.2,0.8-0.4,1c-0.3,0.3-0.6,0.4-1,0.4h-3.7v-2.9h3.7C194.9,143,195.6,143.6,195.6,144.4z"
		/>
	<path class="st0" d="M195.6,148.1c0,0.4-0.2,0.8-0.4,1c-0.3,0.3-0.6,0.4-1,0.4h-3.7v-2.9h3.7C194.9,146.7,195.6,147.3,195.6,148.1z
		"/>
	<path class="st0" d="M202.5,140.7c0,0.4,0.2,0.7,0.4,1c0.3,0.3,0.6,0.4,1,0.4h3.7v-1.8c0-0.4,0-0.7-0.1-1.1h-3.6
		C203.1,139.2,202.5,139.9,202.5,140.7z"/>
	<path class="st0" d="M202.5,144.4c0,0.4,0.2,0.8,0.4,1c0.3,0.3,0.6,0.4,1,0.4h3.7v-2.9h-3.7C203.1,143,202.5,143.6,202.5,144.4z"/>
	<path class="st0" d="M202.5,148.1c0,0.4,0.2,0.8,0.4,1c0.3,0.3,0.6,0.4,1,0.4h3.7v-2.9h-3.7C203.1,146.7,202.5,147.3,202.5,148.1z"
		/>
	<path class="st42" d="M206.2,157.2h-14.4c-1.3,0-2.4-1.1-2.4-2.4l0,0c0-1.3,1.1-2.4,2.4-2.4h14.4c1.3,0,2.4,1.1,2.4,2.4l0,0
		C208.6,156.1,207.5,157.2,206.2,157.2z"/>
	<path class="st37" d="M315,258.2c0,2.5-0.3,5-1,7.3c-0.7,2.6-1.7,5-3,7.2c-2.6,4.3-6.2,7.9-10.6,10.4c-1.2,0.7-2.4,1.3-3.7,1.8
		c-3.1,1.2-6.6,1.9-10.1,1.9c-0.1,0-0.1,0-0.2,0c-0.4,0-0.9,0-1.3,0c-0.4,0-0.8,0-1.2-0.1c-1.1-0.1-2.3-0.3-3.4-0.5
		c-13-2.7-22.7-14.2-22.7-28c0-15.8,12.8-28.6,28.6-28.6l0,0c1.9,0,3.7,0.2,5.5,0.5c8.4,1.7,15.5,7,19.5,14.3
		c0.8,1.4,1.4,2.8,1.9,4.3c0.2,0.6,0.4,1.3,0.6,1.9C314.7,253,315,255.6,315,258.2z"/>
	<path class="st40" d="M315,258.2c0,2.5-0.3,5-1,7.3c-0.7,2.6-1.7,5-3,7.2c-2.6,4.3-6.2,7.9-10.6,10.4h-19.1c-4.8,0-8.7-3.9-8.7-8.7
		v-17.2c0-4.8,3.9-8.7,8.7-8.7h32.1c0.2,0.6,0.4,1.3,0.6,1.9C314.7,253,315,255.6,315,258.2z"/>
	<path class="st4" d="M265.5,251.9c0-4.2,2.9-7.6,6.5-7.6h28.6c3.6,0,6.5,3.4,6.5,7.6"/>
	<path class="st4" d="M265.5,265.9c0,4.2,2.9,7.6,6.5,7.6h28.6c3.6,0,6.5-3.4,6.5-7.6"/>
	<path class="st7" d="M307.2,251.9h-9.7c-1.3-2.5-3.7-4.1-6.4-4.1h-24.6c1.2-2.1,3.2-3.5,5.5-3.5h28.6
		C304.3,244.3,307.2,247.7,307.2,251.9z"/>
	<path class="st7" d="M265.5,265.9h9.7c1.3,2.5,3.7,4.1,6.4,4.1h24.6c-1.2,2.1-3.2,3.5-5.5,3.5h-28.6
		C268.5,273.6,265.5,270.2,265.5,265.9z"/>
	<path class="st43" d="M305.1,266.9h-37.5c-1.8,0-3.3-1.5-3.3-3.3v-1.8c0-1.8,1.5-3.3,3.3-3.3h37.5c1.8,0,3.3,1.5,3.3,3.3v1.8
		C308.5,265.4,307,266.9,305.1,266.9z"/>
	<path class="st44" d="M308.4,263.9c-0.2,1.7-1.6,2.9-3.3,2.9h-37.5c-1.7,0-3.1-1.3-3.3-2.9c0.6,0.8,1.6,1.3,2.7,1.3h38.8
		C306.8,265.2,307.8,264.7,308.4,263.9z"/>
	<path class="st45" d="M307.1,259.7c-1.5,0.5-2,2.4-3.8,2.1c-1.8-0.2-2.3-2.2-4.1-2.1c-0.2,0-0.5,0-0.7,0s-0.4,0-0.7,0
		c-1.6,0.3-1.9,1.9-3.5,2.1c-1.6,0.2-2.2-1.3-3.4-1.9c-0.4-0.1-0.7,0.1-1,0.2c-0.2,0.1-0.4,0.2-0.6,0.4c-0.6,0.4-1.1,0.8-1.9,0.9
		c-1.8,0.2-3-2.2-4.5-0.8c-0.2,0.2-0.4,0.3-0.5,0.5c-0.4,0.3-0.8,0.6-1.3,0.7c-0.2,0-0.5,0-0.7,0c-1.2-0.3-2.2-1.7-3.6-0.9
		c-0.3,0.1-0.5,0.2-0.7,0.2c-1.2,0.1-2.3-0.7-3.4-1c-0.5-0.1-0.9,0.1-1.3,0.4c-0.2,0.1-0.4,0.2-0.6,0.4c-0.8,0.5-1.7,0.8-2.7,0.3
		c-0.9-0.5-1.8-1.2-2.8-1.5c-0.2-0.1-0.3-0.2-0.4-0.3c-0.3-0.2-0.4-0.5-0.4-0.9v-2.3c0-0.7,0.6-1.2,1.4-1.2c0,0,0.6,0,1.6,0
		c0.2,0,0.4,0,0.7,0c0.6,0,1.1,0,1.6,0c0.3,0,0.6,0,1,0c0.3,0,0.6,0,0.9,0s0.6,0,1,0c1.7,0,3.4,0,5,0c0.3,0,0.5,0,0.8,0
		c1.8,0,3.6,0,5.4,0c0.2,0,0.4,0,0.7,0c6,0,12.1,0,16.6,0c0.3,0,0.7,0,1,0c1.1,0,2.1,0,3.2,0c0.2,0,0.4,0,0.6,0c0.9,0,1.4,0,1.4,0
		c0.8,0,1.4,0.5,1.4,1.2v2.3c0,0.3-0.2,0.6-0.4,0.9c-0.1,0.1-0.3,0.2-0.4,0.3C307.5,259.7,307.3,259.7,307.1,259.7z"/>
	<path class="st46" d="M306.7,255.9c-1.9,0.7-3.9-0.5-5.7,0.4c-0.2,0.1-0.4,0.1-0.6,0.1c-1.6,0.2-2.9-0.9-4.5-0.9
		c-0.2,0-0.4,0.1-0.6,0.1c-1.3,0.4-2.3,1.5-3.5,1.6c-1.4,0.1-2.3-1.4-3.9-1.6c-0.3,0-0.6,0-0.8,0.1c-1.2,0.4-2,2-3.4,2
		c-1.5,0-2.3-2.5-4.1-2.1c-0.3,0.1-0.5,0.1-0.8,0.3c-1,0.5-1.8,1.3-2.8,1.3c-1.1,0.1-1.6-0.9-2.6-1.4c-0.5-0.2-0.9-0.1-1.4-0.1
		c-0.3,0.1-0.6,0.1-0.9,0.2c-2.3,0.4-4.6,0.7-6.6-0.9c-0.2-0.2-0.3-0.4-0.4-0.6c-0.1-0.2-0.2-0.5-0.2-0.8v-0.2
		c0-1.1,0.9-1.9,1.9-1.9h40.7c1.1,0,1.9,0.9,1.9,1.9v0.2c0,0.3-0.1,0.5-0.2,0.8c-0.1,0.2-0.2,0.4-0.4,0.6c-0.2,0.2-0.4,0.3-0.6,0.5
		C307.2,255.7,307,255.8,306.7,255.9z"/>
	<path class="st47" d="M273.9,247.8c-0.2,0.6-0.5,0.9-0.8,0.8s-0.4-0.6-0.3-1.2c0.1-0.3,0.2-0.5,0.4-0.7c0.1-0.1,0.2-0.2,0.3-0.3
		l0.4-0.6v0.8c0,0.1,0,0.2,0,0.3C274,247.2,274,247.5,273.9,247.8z"/>
	<path class="st47" d="M279.5,246.7c0,0.6-0.2,1.1-0.5,1.1s-0.6-0.4-0.6-1c0-0.3,0-0.6,0.1-0.8c0.1-0.1,0.1-0.3,0.1-0.4l0.2-0.7
		l0.3,0.7c0,0.1,0.1,0.2,0.2,0.3C279.4,246.1,279.5,246.4,279.5,246.7z"/>
	<path class="st47" d="M284,249.1c-0.1,0.6-0.4,1-0.7,1c-0.3,0-0.5-0.5-0.5-1.1c0-0.3,0.1-0.6,0.2-0.7c0.1-0.1,0.1-0.2,0.2-0.4
		l0.3-0.7l0.2,0.8c0,0.1,0.1,0.2,0.1,0.3C284,248.5,284,248.8,284,249.1z"/>
	<path class="st47" d="M288.9,248.1c0.1,0.6-0.1,1.1-0.4,1.1c-0.3,0.1-0.6-0.4-0.7-0.9c-0.1-0.3,0-0.6,0-0.8c0-0.1,0.1-0.3,0.1-0.4
		l0.1-0.8l0.4,0.7c0.1,0.1,0.1,0.2,0.2,0.3C288.7,247.5,288.8,247.8,288.9,248.1z"/>
	<path class="st47" d="M300.1,248c0.2,0.5,0.1,1.1-0.2,1.2c-0.3,0.1-0.7-0.3-0.9-0.8c-0.1-0.3-0.1-0.6-0.1-0.8c0-0.1,0-0.3,0-0.4
		v-0.8l0.5,0.6c0.1,0.1,0.2,0.2,0.2,0.3C299.9,247.4,300,247.7,300.1,248z"/>
	<path class="st47" d="M294.6,249.1c-0.1,0.6-0.3,1-0.7,1c-0.3,0-0.5-0.5-0.5-1.1c0-0.3,0.1-0.6,0.2-0.7c0.1-0.1,0.1-0.2,0.2-0.4
		l0.3-0.7l0.2,0.8c0,0.1,0.1,0.2,0.1,0.3C294.6,248.5,294.6,248.8,294.6,249.1z"/>
	<path class="st16" d="M315,152.4c0,2.5-0.3,5-1,7.3c-0.7,2.6-1.7,5-3,7.2c-0.6,1-1.2,1.9-1.8,2.7c-3.2,4.2-7.5,7.5-12.5,9.4
		c-0.2,0.1-0.5,0.2-0.7,0.3c-3,1.1-6.1,1.6-9.5,1.7c-0.1,0-0.1,0-0.2,0c-0.4,0-0.9,0-1.3,0c-0.4,0-0.8,0-1.2-0.1
		c-1.1-0.1-2.3-0.3-3.4-0.5c-13-2.7-22.7-14.2-22.7-28c0-15.8,12.8-28.6,28.6-28.6l0,0c1.9,0,3.7,0.2,5.5,0.5c2.1,0.4,4,1,5.9,1.8
		c4.5,2,8.4,5.1,11.4,9c0.8,1.1,1.6,2.3,2.3,3.5c1.1,1.9,1.9,4,2.5,6.2C314.7,147.2,315,149.8,315,152.4z"/>
	<path class="st31" d="M309.2,135.1v34.6c-3.2,4.2-7.5,7.5-12.5,9.4c-0.2,0.1-0.5,0.2-0.7,0.3h-7.7c-3.1,0-5.7-2.1-6.5-5
		c0-0.2-0.1-0.3-0.1-0.5l0,0c-0.1-0.4-0.1-0.8-0.1-1.2v-39.8c0-1,0.2-2,0.6-2.8c1.1-2.3,3.4-3.9,6.1-3.9h9.5
		C302.3,128.1,306.3,131.2,309.2,135.1z"/>
	<path class="st48" d="M291.2,174.4h-9.6c-3.7,0-6.7-3-6.7-6.7v-30.9c0-3.7,3-6.7,6.7-6.7h9.6c3.7,0,6.7,3,6.7,6.7v30.9
		C297.9,171.4,294.9,174.4,291.2,174.4z"/>
	<path class="st4" d="M291.2,130c3.7,0,6.7,3,6.7,6.7v30.9c0,3.7-3,6.7-6.7,6.7h-9.6L291.2,130z"/>
	<path class="st3" d="M297.9,136.8h-23c0-3.7,3-6.7,6.7-6.7h9.6C294.9,130,297.9,133.1,297.9,136.8z"/>
	<path class="st49" d="M291.2,174.4h-9.6c-3.7,0-6.7-3-6.7-6.7v-2.5h23v2.5C297.9,171.4,294.9,174.4,291.2,174.4z"/>
	<path class="st0" d="M288.6,169.8c0,1.4-1.1,2.6-2.6,2.6c-1.4,0-2.6-1.1-2.6-2.6c0-1.4,1.1-2.6,2.6-2.6
		C287.4,167.2,288.6,168.4,288.6,169.8z"/>
	<path class="st0" d="M286.9,135.2h-6.6c-0.5,0-0.9-0.4-0.9-0.9s0.4-0.9,0.9-0.9h6.6c0.5,0,0.9,0.4,0.9,0.9
		C287.8,134.8,287.4,135.2,286.9,135.2z"/>
	<path class="st0" d="M291.1,134.4c0,0.6-0.5,1-1,1c-0.6,0-1-0.5-1-1s0.5-1,1-1C290.7,133.4,291.1,133.9,291.1,134.4z"/>
	<path class="st6" d="M271.9,146.6c-0.7,0.2-1.4,0.6-1.8,1.1c-0.5,0.5-0.8,1.2-0.8,2c0,0.1,0,0.2,0,0.3c0,0.8,0.2,1.5,0.7,2.1
		c0.4,0.6,1,1.1,1.8,1.3c0.3,0.1,0.7-0.1,0.8-0.4c0.1-0.3-0.1-0.7-0.4-0.8c-0.5-0.2-0.9-0.5-1.1-0.8c-0.3-0.4-0.4-0.8-0.4-1.3
		c0-0.1,0-0.1,0-0.2c0-0.5,0.2-0.9,0.5-1.2s0.7-0.6,1.2-0.7c0.3-0.1,0.6-0.4,0.5-0.8C272.6,146.7,272.2,146.5,271.9,146.6z"/>
	<path class="st6" d="M271.5,143.3c-1.5,0.4-2.7,1.2-3.6,2.2c-0.9,1.1-1.5,2.4-1.6,3.9c0,0.2,0,0.4,0,0.6c0,1.5,0.5,2.9,1.3,4.1
		c0.9,1.2,2.1,2.1,3.5,2.6c0.4,0.1,0.8-0.1,1-0.5c0.1-0.4-0.1-0.8-0.5-1c-1.1-0.4-2.1-1.1-2.8-2s-1-2-1-3.2c0-0.1,0-0.3,0-0.4
		c0.1-1.1,0.6-2.2,1.3-3c0.7-0.8,1.7-1.5,2.9-1.8c0.4-0.1,0.7-0.5,0.6-0.9C272.3,143.5,271.9,143.2,271.5,143.3L271.5,143.3z"/>
	<path class="st6" d="M300.6,147.9c0.5,0.1,0.9,0.4,1.2,0.7c0.3,0.3,0.5,0.8,0.5,1.2c0,0.1,0,0.1,0,0.2c0,0.5-0.2,0.9-0.4,1.3
		c-0.3,0.4-0.7,0.7-1.1,0.8c-0.3,0.1-0.5,0.5-0.4,0.8c0.1,0.3,0.5,0.5,0.8,0.4c0.7-0.2,1.4-0.7,1.8-1.3c0.4-0.6,0.7-1.3,0.7-2.1
		c0-0.1,0-0.2,0-0.3c-0.1-0.7-0.4-1.4-0.8-2c-0.5-0.5-1.1-0.9-1.8-1.1c-0.3-0.1-0.7,0.1-0.8,0.5C300,147.4,300.2,147.8,300.6,147.9z
		"/>
	<path class="st6" d="M300.9,144.8c1.1,0.3,2.1,0.9,2.9,1.8c0.7,0.8,1.2,1.9,1.3,3c0,0.1,0,0.3,0,0.4c0,1.1-0.4,2.2-1,3.2
		c-0.7,0.9-1.6,1.6-2.8,2c-0.4,0.1-0.6,0.6-0.5,1c0.1,0.4,0.6,0.6,1,0.5c1.5-0.5,2.7-1.4,3.5-2.6c0.9-1.2,1.3-2.6,1.3-4.1
		c0-0.2,0-0.4,0-0.6c-0.1-1.5-0.7-2.8-1.6-3.9c-0.9-1.1-2.2-1.9-3.6-2.2c-0.4-0.1-0.8,0.1-0.9,0.6
		C300.4,144.4,300.5,144.7,300.9,144.8L300.9,144.8z"/>
</g>
</svg>
