<?xml version="1.0" encoding="utf-8"?>
<!-- Generator: Adobe Illustrator 23.0.6, SVG Export Plug-In . SVG Version: 6.00 Build 0)  -->
<svg version="1.1" id="Layer_1" xmlns="http://www.w3.org/2000/svg" xmlns:xlink="http://www.w3.org/1999/xlink" x="0px" y="0px"
	 viewBox="0 0 400 300" style="enable-background:new 0 0 400 300;" xml:space="preserve">
<style type="text/css">
	.st0{fill:#221F1F;}
	.st1{fill:#24898B;}
	.st2{fill:#F4833D;}
	.st3{fill:#808083;}
	.st4{fill:#F9AB7A;}
	.st5{fill:#FFFFFF;}
	.st6{fill:#0B3E40;}
	.st7{fill:#FBC6A6;}
	.st8{fill:#7E7F81;}
	.st9{fill:#A8AAAB;}
	.st10{fill:#E02F75;}
	.st11{fill:#8F69AD;}
	.st12{fill:#D697C2;}
	.st13{fill:#26498C;}
	.st14{fill:#FCB744;}
	.st15{fill:#5CB15C;}
	.st16{fill:#ACD5D8;}
	.st17{fill:#FACBC8;}
	.st18{fill:#F5999B;}
	.st19{fill:#FBC8A8;}
	.st20{fill:#126266;}
	.st21{fill:#CFD1D2;}
	.st22{fill:#F48035;}
	.st23{fill:#919395;}
	.st24{fill:#FBED1D;}
	.st25{fill:#61C7D5;}
	.st26{fill:#66C8CE;}
	.st27{fill:#198AA3;}
	.st28{fill:#414141;}
	.st29{fill:#FDDC0D;}
	.st30{fill:#F4A721;}
	.st31{fill:#55A4A5;}
	.st32{fill:#9B5B31;}
	.st33{fill:#F1EB65;}
	.st34{fill:#4C2814;}
	.st35{fill:#D0B52B;}
	.st36{fill:#FFDC93;}
	.st37{fill:#A27CB6;}
	.st38{fill:#F7BF17;}
	.st39{fill:#EE8322;}
	.st40{fill:#6D4784;}
	.st41{fill:#EE5DA1;}
	.st42{fill:#290E41;}
	.st43{fill:#895D3B;}
	.st44{fill:#603917;}
	.st45{fill:#FDE662;}
	.st46{fill:#00A44F;}
	.st47{fill:#AF5C28;}
	.st48{fill:#BABCBE;}
	.st49{fill:#6D6F70;}
</style>
<g>
	<path class="st0" d="M293.6,58.6h-24c-2.1,0-3.8-1.7-3.8-3.8V31.5c0-2.1,1.7-3.8,3.8-3.8h24c2.1,0,3.8,1.7,3.8,3.8v23.3
		C297.4,56.9,295.7,58.6,293.6,58.6z"/>
	<path class="st0" d="M293.6,58.6L293.6,58.6l-24-0.1c-1,0-2-0.4-2.7-1.1c-0.7-0.7-1.1-1.6-1.1-2.7V31.5c0-1,0.4-2,1.1-2.7
		c0.7-0.7,1.6-1.1,2.7-1.1h24c1,0,2,0.4,2.7,1.1c0.7,0.7,1.1,1.6,1.1,2.7v23.3c0,1-0.4,2-1.1,2.7C295.6,58.1,294.7,58.6,293.6,58.6
		L293.6,58.6L293.6,58.6c2.1,0.1,3.9-1.7,3.9-3.8V31.5c0-2.1-1.7-3.9-3.9-3.9c-7.7,0-15.5,0-23.2,0h-0.5c-0.3,0-0.3,0-0.3,0
		c-1.6,0-2.8,1.1-2.8,1.1c-0.7,0.7-1.1,1.7-1.1,2.8v23.3c0,2.1,1.7,3.9,3.9,3.9L293.6,58.6L293.6,58.6z"/>
	<path class="st1" d="M289.3,24.9c-0.8-0.9-1.3-1.8-1.5-2.7c-0.3-1-1.2-1.6-2.2-1.6c-1.3,0-2.6,0-4,0v0l0,0l0,0v0c-1.3,0-2.6,0-4,0
		c-1,0-1.9,0.7-2.2,1.6c-0.2,0.8-0.7,1.8-1.5,2.7c-1,1.1-2.1,1.6-2.7,1.8h10.3h0.2H292C291.4,26.4,290.3,25.9,289.3,24.9z"/>
	<path class="st1" d="M289.3,61.4c-0.8,0.9-1.3,1.8-1.5,2.7c-0.3,1-1.2,1.6-2.2,1.6c-1.3,0-2.6,0-4,0v0l0,0l0,0v0c-1.3,0-2.6,0-4,0
		c-1,0-1.9-0.7-2.2-1.6c-0.2-0.8-0.7-1.8-1.5-2.7c-1-1.1-2.1-1.6-2.7-1.8h10.3h0.2H292C291.4,59.9,290.3,60.4,289.3,61.4z"/>
	<path class="st2" d="M291.7,56.2h-20.2c-1.8,0-3.2-1.4-3.2-3.2V33.4c0-1.8,1.4-3.2,3.2-3.2h20.2c1.8,0,3.2,1.4,3.2,3.2v19.6
		C294.9,54.7,293.5,56.2,291.7,56.2z"/>
	<path class="st3" d="M291.7,56.2L291.7,56.2l-20.2-0.1c-0.9,0-1.7-0.4-2.2-0.9c-0.6-0.6-0.9-1.4-0.9-2.2V33.4
		c0-0.9,0.4-1.7,0.9-2.2c0.6-0.6,1.4-0.9,2.2-0.9h20.2c0.9,0,1.7,0.4,2.2,0.9c0.6,0.6,0.9,1.4,0.9,2.2v19.6c0,0.9-0.4,1.7-0.9,2.2
		C293.4,55.8,292.6,56.1,291.7,56.2L291.7,56.2L291.7,56.2c1.8,0.1,3.3-1.4,3.3-3.2V33.4c0-1.8-1.5-3.3-3.3-3.3c-6.5,0-13,0-19.5,0
		h-0.4c-0.2,0-0.2,0-0.2,0c-1.3,0-2.3,1-2.3,1c-0.6,0.6-1,1.4-1,2.3v19.6c0,1.8,1.5,3.3,3.3,3.3L291.7,56.2L291.7,56.2z"/>
	<path class="st4" d="M291.2,32.1c-10.6,1.3-17.1,16.4-18.8,20.8c-0.2,0.6,0.2,1.2,0.8,1.2h17.9c0.8,0,1.4-0.6,1.4-1.4V33.6
		C292.6,32.8,292,32.1,291.2,32.1z"/>
	<path class="st5" d="M278.5,43.2c0-1.7,1.4-3.1,3.1-3.1s3.1,1.4,3.1,3.1c0,1.7-1.4,3.1-3.1,3.1S278.5,44.9,278.5,43.2z"/>
	<path class="st6" d="M279.9,49c0,0.8-0.6,1.4-1.4,1.4c-0.8,0-1.4-0.6-1.4-1.4c0-0.8,0.6-1.4,1.4-1.4
		C279.3,47.6,279.9,48.2,279.9,49z"/>
	<circle class="st6" cx="278.5" cy="37.3" r="1.4"/>
	<path class="st6" d="M276.6,43.2c0,0.8-0.6,1.4-1.4,1.4c-0.8,0-1.4-0.6-1.4-1.4c0-0.8,0.6-1.4,1.4-1.4
		C276,41.7,276.6,42.4,276.6,43.2z"/>
	<path class="st6" d="M286.1,37.3c0,0.8-0.6,1.4-1.4,1.4c-0.8,0-1.4-0.6-1.4-1.4c0-0.8,0.6-1.4,1.4-1.4
		C285.5,35.9,286.1,36.5,286.1,37.3z"/>
	<path class="st6" d="M286.4,49c0,0.8-0.6,1.4-1.4,1.4c-0.8,0-1.4-0.6-1.4-1.4c0-0.8,0.6-1.4,1.4-1.4
		C285.8,47.6,286.4,48.2,286.4,49z"/>
	<path class="st6" d="M289.8,43.2c0,0.8-0.6,1.4-1.4,1.4c-0.8,0-1.4-0.6-1.4-1.4c0-0.8,0.6-1.4,1.4-1.4
		C289.2,41.7,289.8,42.4,289.8,43.2z"/>
	<path class="st4" d="M281.6,13.2C265.8,13.2,253,26,253,41.8c0,15.8,12.8,28.6,28.6,28.6c0.1,0,0.1,0,0.2,0L281.6,13.2
		C281.6,13.2,281.6,13.2,281.6,13.2z"/>
	<path class="st7" d="M310.2,41.8c0-15.8-12.8-28.6-28.6-28.6l0.2,57.3C297.5,70.3,310.2,57.5,310.2,41.8z"/>
	<path class="st0" d="M293.6,57.3h-24c-2.1,0-3.8-1.7-3.8-3.8V30.1c0-2.1,1.7-3.8,3.8-3.8h24c2.1,0,3.8,1.7,3.8,3.8v23.3
		C297.4,55.6,295.7,57.3,293.6,57.3z"/>
	<path class="st0" d="M293.6,57.3L293.6,57.3l-24-0.1c-1,0-2-0.4-2.7-1.1c-0.7-0.7-1.1-1.6-1.1-2.7V30.1c0-1,0.4-2,1.1-2.7
		c0.7-0.7,1.6-1.1,2.7-1.1h24c1,0,2,0.4,2.7,1.1c0.7,0.7,1.1,1.6,1.1,2.7v23.3c0,1-0.4,2-1.1,2.7C295.6,56.8,294.7,57.2,293.6,57.3
		L293.6,57.3L293.6,57.3c2.1,0.1,3.9-1.7,3.9-3.8V30.1c0-2.1-1.7-3.9-3.9-3.9c-7.7,0-15.5,0-23.2,0h-0.5c-0.3,0-0.3,0-0.3,0
		c-1.6,0-2.8,1.1-2.8,1.1c-0.7,0.7-1.1,1.7-1.1,2.8v23.3c0,2.1,1.7,3.9,3.9,3.9L293.6,57.3L293.6,57.3z"/>
	<path class="st1" d="M289.3,23.5c-0.8-0.9-1.3-1.8-1.5-2.7c-0.3-1-1.2-1.6-2.2-1.6c-1.3,0-2.6,0-4,0v0l0,0l0,0v0c-1.3,0-2.6,0-4,0
		c-1,0-1.9,0.7-2.2,1.6c-0.2,0.8-0.7,1.8-1.5,2.7c-1,1.1-2.1,1.6-2.7,1.8h10.3h0.2H292C291.4,25.1,290.3,24.6,289.3,23.5z"/>
	<path class="st1" d="M289.3,60.1c-0.8,0.9-1.3,1.8-1.5,2.7c-0.3,1-1.2,1.6-2.2,1.6c-1.3,0-2.6,0-4,0v0l0,0l0,0v0c-1.3,0-2.6,0-4,0
		c-1,0-1.9-0.7-2.2-1.6c-0.2-0.8-0.7-1.8-1.5-2.7c-1-1.1-2.1-1.6-2.7-1.8h10.3h0.2H292C291.4,58.5,290.3,59,289.3,60.1z"/>
	<path class="st8" d="M291.7,54.8h-20.2c-1.8,0-3.2-1.4-3.2-3.2V32c0-1.8,1.4-3.2,3.2-3.2h20.2c1.8,0,3.2,1.4,3.2,3.2v19.6
		C294.9,53.4,293.5,54.8,291.7,54.8z"/>
	<path class="st3" d="M291.7,54.8L291.7,54.8l-20.2-0.1c-0.9,0-1.7-0.4-2.2-0.9c-0.6-0.6-0.9-1.4-0.9-2.2V32c0-0.9,0.4-1.7,0.9-2.2
		c0.6-0.6,1.4-0.9,2.2-0.9h20.2c0.9,0,1.7,0.4,2.2,0.9c0.6,0.6,0.9,1.4,0.9,2.2v19.6c0,0.9-0.4,1.7-0.9,2.2
		C293.4,54.4,292.6,54.7,291.7,54.8L291.7,54.8L291.7,54.8c1.8,0.1,3.3-1.4,3.3-3.2V32c0-1.8-1.5-3.3-3.3-3.3c-6.5,0-13,0-19.5,0
		h-0.4c-0.2,0-0.2,0-0.2,0c-1.3,0-2.3,1-2.3,1c-0.6,0.6-1,1.4-1,2.3v19.6c0,1.8,1.5,3.3,3.3,3.3L291.7,54.8L291.7,54.8z"/>
	<path class="st9" d="M291.2,30.8c-10.6,1.3-17.1,16.4-18.8,20.8c-0.2,0.6,0.2,1.2,0.8,1.2h17.9c0.8,0,1.4-0.6,1.4-1.4V32.2
		C292.6,31.4,292,30.8,291.2,30.8z"/>
	<path class="st5" d="M278.5,41.8c0-1.7,1.4-3.1,3.1-3.1s3.1,1.4,3.1,3.1c0,1.7-1.4,3.1-3.1,3.1S278.5,43.5,278.5,41.8z"/>
	<path class="st10" d="M279.9,47.7c0,0.8-0.6,1.4-1.4,1.4c-0.8,0-1.4-0.6-1.4-1.4c0-0.8,0.6-1.4,1.4-1.4
		C279.3,46.2,279.9,46.9,279.9,47.7z"/>
	<circle class="st11" cx="278.5" cy="35.9" r="1.4"/>
	<path class="st12" d="M276.6,41.8c0,0.8-0.6,1.4-1.4,1.4c-0.8,0-1.4-0.6-1.4-1.4c0-0.8,0.6-1.4,1.4-1.4
		C276,40.4,276.6,41,276.6,41.8z"/>
	<path class="st13" d="M286.1,35.9c0,0.8-0.6,1.4-1.4,1.4c-0.8,0-1.4-0.6-1.4-1.4c0-0.8,0.6-1.4,1.4-1.4
		C285.5,34.5,286.1,35.1,286.1,35.9z"/>
	<path class="st14" d="M286.4,47.7c0,0.8-0.6,1.4-1.4,1.4c-0.8,0-1.4-0.6-1.4-1.4c0-0.8,0.6-1.4,1.4-1.4
		C285.8,46.2,286.4,46.9,286.4,47.7z"/>
	<path class="st15" d="M289.8,41.8c0,0.8-0.6,1.4-1.4,1.4c-0.8,0-1.4-0.6-1.4-1.4c0-0.8,0.6-1.4,1.4-1.4
		C289.2,40.4,289.8,41,289.8,41.8z"/>
	<path class="st16" d="M136.3,41.8c0,15.7-12.7,28.5-28.4,28.6c-0.1,0-0.1,0-0.2,0c-0.9,0-1.7,0-2.5-0.1C90.5,69,79,56.7,79,41.8
		c0-15.8,12.8-28.6,28.6-28.6c0,0,0,0,0,0c13.2,0,24.2,8.9,27.6,21C135.9,36.6,136.3,39.1,136.3,41.8z"/>
	<path class="st17" d="M194.3,13.2c-15.8,0-28.6,12.8-28.6,28.6c0,15.8,12.8,28.6,28.6,28.6c0.1,0,0.1,0,0.2,0L194.3,13.2
		C194.3,13.2,194.3,13.2,194.3,13.2z"/>
	<path class="st17" d="M221.2,257.1c0,15.7-12.7,28.5-28.4,28.6c-0.1,0-0.1,0-0.2,0c-0.2,0-0.5,0-0.7,0c-15.5-0.4-27.9-13-27.9-28.6
		c0-15.8,12.8-28.6,28.6-28.6c0,0,0,0,0,0c13.8,0,25.3,9.8,28,22.8C221,253.2,221.2,255.1,221.2,257.1z"/>
	<path class="st18" d="M222.9,41.8c0-15.8-12.8-28.6-28.6-28.6l0.2,57.3C210.2,70.3,222.9,57.5,222.9,41.8z"/>
	<path class="st19" d="M133.5,257.1c0,4.8-1.2,9.4-3.3,13.4c-1.5,2.8-3.4,5.4-5.7,7.5c-5.1,4.8-11.9,7.7-19.4,7.7
		c-0.1,0-0.1,0-0.2,0c-15.8,0-28.6-12.8-28.6-28.6c0-15.8,12.8-28.6,28.6-28.6c0,0,0,0,0,0C120.7,228.5,133.5,241.3,133.5,257.1z"/>
	<path class="st0" d="M206.3,57.3h-24c-2.1,0-3.8-1.7-3.8-3.8V30.1c0-2.1,1.7-3.8,3.8-3.8h24c2.1,0,3.8,1.7,3.8,3.8v23.3
		C210.1,55.6,208.4,57.3,206.3,57.3z"/>
	<path class="st0" d="M206.3,57.3L206.3,57.3l-24-0.1c-1,0-2-0.4-2.7-1.1c-0.7-0.7-1.1-1.6-1.1-2.7V30.1c0-1,0.4-2,1.1-2.7
		c0.7-0.7,1.6-1.1,2.7-1.1h24c1,0,2,0.4,2.7,1.1c0.7,0.7,1.1,1.6,1.1,2.7v23.3c0,1-0.4,2-1.1,2.7C208.2,56.8,207.3,57.2,206.3,57.3
		L206.3,57.3L206.3,57.3c2.1,0.1,3.9-1.7,3.9-3.8V30.1c0-2.1-1.7-3.9-3.9-3.9c-7.7,0-15.5,0-23.2,0h-0.5c-0.3,0-0.3,0-0.3,0
		c-1.6,0-2.8,1.1-2.8,1.1c-0.7,0.7-1.1,1.7-1.1,2.8v23.3c0,2.1,1.7,3.9,3.9,3.9L206.3,57.3L206.3,57.3z"/>
	<path class="st20" d="M202,23.5c-0.8-0.9-1.3-1.8-1.5-2.7c-0.3-1-1.2-1.6-2.2-1.6c-1.3,0-2.6,0-4,0v0l0,0l0,0v0c-1.3,0-2.6,0-4,0
		c-1,0-1.9,0.7-2.2,1.6c-0.2,0.8-0.7,1.8-1.5,2.7c-1,1.1-2.1,1.6-2.7,1.8h10.3h0.2h10.3C204.1,25.1,203,24.6,202,23.5z"/>
	<path class="st20" d="M202,60.1c-0.8,0.9-1.3,1.8-1.5,2.7c-0.3,1-1.2,1.6-2.2,1.6c-1.3,0-2.6,0-4,0v0l0,0l0,0v0c-1.3,0-2.6,0-4,0
		c-1,0-1.9-0.7-2.2-1.6c-0.2-0.8-0.7-1.8-1.5-2.7c-1-1.1-2.1-1.6-2.7-1.8h10.3h0.2h10.3C204.1,58.5,203,59,202,60.1z"/>
	<path class="st3" d="M204.3,54.8h-20.2c-1.8,0-3.2-1.4-3.2-3.2V32c0-1.8,1.4-3.2,3.2-3.2h20.2c1.8,0,3.2,1.4,3.2,3.2v19.6
		C207.6,53.4,206.1,54.8,204.3,54.8z"/>
	<path class="st21" d="M203.8,30.8c-10.6,1.3-17.1,16.4-18.8,20.8c-0.2,0.6,0.2,1.2,0.8,1.2h17.9c0.8,0,1.4-0.6,1.4-1.4V32.2
		C205.3,31.4,204.6,30.8,203.8,30.8z"/>
	<path class="st22" d="M191.1,41.8c0-1.7,1.4-3.1,3.1-3.1c1.7,0,3.1,1.4,3.1,3.1c0,1.7-1.4,3.1-3.1,3.1
		C192.5,44.9,191.1,43.5,191.1,41.8z"/>
	<path class="st6" d="M192.6,47.7c0,0.8-0.6,1.4-1.4,1.4c-0.8,0-1.4-0.6-1.4-1.4c0-0.8,0.6-1.4,1.4-1.4
		C191.9,46.2,192.6,46.9,192.6,47.7z"/>
	<path class="st6" d="M192.6,35.9c0,0.8-0.6,1.4-1.4,1.4c-0.8,0-1.4-0.6-1.4-1.4c0-0.8,0.6-1.4,1.4-1.4
		C191.9,34.5,192.6,35.1,192.6,35.9z"/>
	<path class="st6" d="M189.3,41.8c0,0.8-0.6,1.4-1.4,1.4c-0.8,0-1.4-0.6-1.4-1.4c0-0.8,0.6-1.4,1.4-1.4
		C188.6,40.4,189.3,41,189.3,41.8z"/>
	<path class="st6" d="M198.8,35.9c0,0.8-0.6,1.4-1.4,1.4c-0.8,0-1.4-0.6-1.4-1.4c0-0.8,0.6-1.4,1.4-1.4
		C198.1,34.5,198.8,35.1,198.8,35.9z"/>
	<path class="st6" d="M199,47.7c0,0.8-0.6,1.4-1.4,1.4c-0.8,0-1.4-0.6-1.4-1.4c0-0.8,0.6-1.4,1.4-1.4C198.4,46.2,199,46.9,199,47.7z
		"/>
	<path class="st6" d="M202.4,41.8c0,0.8-0.6,1.4-1.4,1.4c-0.8,0-1.4-0.6-1.4-1.4c0-0.8,0.6-1.4,1.4-1.4
		C201.8,40.4,202.4,41,202.4,41.8z"/>
	<path class="st2" d="M130.2,258.5v12c-1.5,2.8-3.4,5.4-5.7,7.5c-0.1,0-0.3,0-0.4,0H96.2c-2.5,0-4.6-1.5-5.6-3.6
		c-0.4-0.8-0.6-1.7-0.6-2.6v-13.4c0-2.3,1.3-4.4,3.2-5.4v-2c0-0.3,0.2-0.5,0.5-0.5h1.9c0.3,0,0.5,0.2,0.5,0.5v1.2l0,0h1v-2.8
		c0-2.1,1.7-3.8,3.8-3.8h18.1c0.5,0,1,0.1,1.4,0.3c1.4,0.6,2.4,1.9,2.4,3.5v2.8h1.1c0.1,0,0.2,0,0.3,0
		C127.6,252.5,130.2,255.2,130.2,258.5z"/>
	<path class="st1" d="M118.8,248.8h-1.1V246c0-2.1-1.7-3.8-3.8-3.8H95.8c-2.1,0-3.8,1.7-3.8,3.8v2.8h-1l0,0v-1.2
		c0-0.3-0.2-0.5-0.5-0.5h-1.9c-0.3,0-0.5,0.2-0.5,0.5v2c-1.9,1-3.2,3.1-3.2,5.4v13.4c0,3.4,2.7,6.1,6.1,6.1h27.8
		c3.4,0,6.1-2.7,6.1-6.1v-13.4C125,251.6,122.2,248.8,118.8,248.8z"/>
	
		<ellipse transform="matrix(0.8507 -0.5257 0.5257 0.8507 -121.1615 94.0115)" class="st0" cx="104.9" cy="260.3" rx="9.7" ry="9.7"/>
	<circle class="st23" cx="104.9" cy="260.3" r="7.6"/>
	<path class="st0" d="M119.8,253.5c0,1.2-1,2.1-2.1,2.1c-1.2,0-2.1-1-2.1-2.1c0-1.2,1-2.1,2.1-2.1
		C118.8,251.4,119.8,252.3,119.8,253.5z"/>
	<line class="st24" x1="122.2" y1="238.9" x2="118.8" y2="242.3"/>
	<path class="st6" d="M122.2,238.9c-0.1,0.5-0.3,0.9-0.5,1.2c-0.2,0.4-0.5,0.7-0.8,1c-0.3,0.3-0.6,0.5-1,0.8
		c-0.4,0.2-0.7,0.4-1.2,0.5c0.1-0.5,0.3-0.9,0.5-1.2c0.2-0.4,0.5-0.7,0.8-1c0.3-0.3,0.6-0.5,1-0.8
		C121.4,239.2,121.8,239,122.2,238.9z"/>
	<path class="st6" d="M112,237.4c0.4,0.3,0.7,0.6,0.9,0.9c0.2,0.3,0.4,0.7,0.6,1c0.2,0.4,0.3,0.7,0.3,1.1c0.1,0.4,0.1,0.8,0,1.3
		c-0.4-0.3-0.7-0.6-0.9-0.9c-0.2-0.3-0.4-0.7-0.6-1c-0.2-0.4-0.3-0.7-0.3-1.1C112,238.3,112,237.9,112,237.4z"/>
	<line class="st2" x1="127.9" y1="249.3" x2="119.8" y2="247.4"/>
	<path class="st6" d="M127.9,249.3c-0.7,0.1-1.4,0.1-2.1,0c-0.7-0.1-1.4-0.2-2.1-0.3c-0.7-0.2-1.3-0.4-2-0.6c-0.7-0.3-1.3-0.5-1.9-1
		c0.7-0.1,1.4-0.1,2.1,0c0.7,0.1,1.4,0.2,2.1,0.3c0.7,0.2,1.3,0.4,2,0.6C126.6,248.6,127.3,248.9,127.9,249.3z"/>
	<polygon class="st25" points="127.9,242.9 118.7,246.9 119.1,250.9 115.7,248.8 112,250.5 112.9,246.5 110.2,243.5 114.2,243.2 
		116.7,233.1 117.8,243.4 	"/>
	<path class="st21" d="M101.2,256c-0.2,0.1-1.1,0.4-1.6,1.3c-0.5,0.8-0.4,1.6-0.3,1.9"/>
	<path class="st5" d="M100.9,255.2c-0.1,0-0.2,0.1-0.3,0.1c-0.2,0.1-0.5,0.3-0.8,0.5c-0.3,0.3-0.6,0.6-0.9,1c-0.2,0.4-0.3,0.7-0.4,1
		c-0.1,0.3-0.1,0.6-0.1,0.9c0,0.2,0,0.4,0,0.5c0.1,0.5,0.5,0.8,1,0.7c0.5-0.1,0.8-0.5,0.7-1c0-0.1,0-0.2,0-0.3c0-0.1,0-0.3,0.1-0.5
		c0-0.2,0.1-0.4,0.2-0.5c0.1-0.2,0.2-0.3,0.3-0.4c0.2-0.2,0.3-0.3,0.5-0.4c0.1,0,0.1-0.1,0.2-0.1c0.1,0,0.1,0,0.1,0
		c0.5-0.2,0.7-0.7,0.5-1.1C101.9,255.3,101.4,255.1,100.9,255.2L100.9,255.2z"/>
	<path class="st18" d="M221.2,257.1c0,15.7-12.7,28.5-28.4,28.6c-0.1,0-0.1,0-0.2,0c-0.2,0-0.5,0-0.7,0l-1.7-34.6l30.5,0.2
		C221,253.2,221.2,255.1,221.2,257.1z"/>
	<path class="st26" d="M199.7,280.9H186c-1.5,0-2.7-1.1-2.7-2.5l-1.5-30.8l21.5,0.1l-1,30.6C202.3,279.8,201.1,280.9,199.7,280.9z"
		/>
	<path class="st27" d="M199.6,280.9h-13.5c-1.5,0-2.6-0.9-2.6-2.1l-1.3-25.6h21l-0.9,25.6C202.3,280,201.1,280.9,199.6,280.9z"/>
	<path class="st28" d="M196.2,262.1l2-18.4l5.8-6.1c0.5-0.5,0.5-1.3,0-1.8c-0.5-0.5-1.3-0.5-1.8,0l-6.4,6.7l-2.1,19.2
		c-0.1,0.7,0.4,1.3,1.1,1.4C195.5,263.3,196.1,262.8,196.2,262.1L196.2,262.1z"/>
	<path class="st29" d="M192,250c-0.2,0.2-0.5,0.4-0.7,0.6c-2.2,1.5-5.2,1.2-7.1-0.7c-2.1-2.2-2.1-5.7,0.1-7.8l0,0L192,250z"/>
	<path class="st30" d="M191.9,250.1c-0.2,0.2-0.4,0.3-0.6,0.5c-2.2,1.5-5.2,1.2-7.1-0.7c-2.1-2.2-2.1-5.6,0-7.7
		c-0.7,2.1-0.3,4.6,1.4,6.3C187.3,250.2,189.7,250.8,191.9,250.1z"/>
	<circle class="st5" cx="189.1" cy="266.1" r="1.8"/>
	<path class="st5" d="M195.6,269.4c0,0.6-0.5,1.1-1.1,1.1c-0.6,0-1.1-0.5-1.1-1.1c0-0.6,0.5-1.1,1.1-1.1
		C195.1,268.2,195.6,268.7,195.6,269.4z"/>
	<circle class="st5" cx="190" cy="270.7" r="0.9"/>
	<path class="st5" d="M187.3,270.7c0,0.5-0.4,0.9-0.9,0.9c-0.5,0-0.9-0.4-0.9-0.9c0-0.5,0.4-0.9,0.9-0.9
		C186.9,269.8,187.3,270.2,187.3,270.7z"/>
	<path class="st5" d="M190.4,274.2c0,0.4-0.4,0.8-0.8,0.8c-0.4,0-0.8-0.4-0.8-0.8c0-0.4,0.4-0.8,0.8-0.8
		C190,273.4,190.4,273.8,190.4,274.2z"/>
	<path class="st31" d="M136.3,41.8c0,15.7-12.7,28.5-28.4,28.6c-0.1,0-0.1,0-0.2,0c-0.9,0-1.7,0-2.5-0.1l-10.9-7.5
		c-0.9-0.6-1.1-1.8-0.5-2.7L118,24.7c0.6-0.9,1.8-1.1,2.7-0.5l14.6,10C135.9,36.6,136.3,39.1,136.3,41.8z"/>
	<path class="st32" d="M97.9,23.6v-0.5h-2.6c-1.9,0-3.5,1.6-3.5,3.5v32.7c0,1.9,1.6,3.5,3.5,3.5h22.9c1.9,0,3.5-1.6,3.5-3.5V26.6
		c0-1.9-1.6-3.5-3.5-3.5h-3.8"/>
	<path class="st33" d="M109,20.6L109,20.6c0-1.6-1.3-2.8-2.8-2.8c-1.6,0-2.8,1.3-2.8,2.8"/>
	<path class="st34" d="M98.1,58.2c0,0.4,0.2,0.8,0.6,1.1c0.3,0.3,0.8,0.4,1.3,0.4h14.2c0.5,0,1-0.2,1.3-0.4c0.3-0.3,0.6-0.7,0.6-1.1
		V58c0-0.1,0-0.2,0-0.3l0-0.1l-0.1,0c-0.3-0.1-0.7-0.2-1.1-0.2H99.3c-0.4,0-0.8,0.1-1.1,0.2l-0.1,0l0,0.1c0,0.1,0,0.2,0,0.3V58.2"/>
	<path class="st5" d="M115.5,57.7c1.9,0,3.4-1.5,3.4-3.4V31.7c0-1.9-1.5-3.4-3.4-3.4H98.1c-1.9,0-3.4,1.5-3.4,3.4v22.6
		c0,1.9,1.5,3.4,3.4,3.4H115.5"/>
	<path class="st1" d="M96.7,50.7c2.3,2.3,2.3,2.3,2.3,2.3c0.1,0.1,0.2,0.2,0.4,0.2s0.3-0.1,0.4-0.2l1.4-1.4c0.2-0.2,0.2-0.5,0-0.7
		c-0.2-0.2-0.5-0.2-0.7,0L99,52.3l0.4,0.4l0.4-0.4c0,0,0,0-2.3-2.3c-0.2-0.2-0.5-0.2-0.7,0C96.4,50.2,96.4,50.5,96.7,50.7z"/>
	<path class="st1" d="M96.7,42.7C99,45,99,45,99,45c0.1,0.1,0.2,0.2,0.4,0.2s0.3-0.1,0.4-0.2l1.4-1.4c0.2-0.2,0.2-0.5,0-0.7
		s-0.5-0.2-0.7,0L99,44.3l0.4,0.4l0.4-0.4c0,0,0,0-2.3-2.3c-0.2-0.2-0.5-0.2-0.7,0C96.4,42.1,96.4,42.5,96.7,42.7L96.7,42.7z"/>
	<path class="st1" d="M96,34.7c2.3,2.3,2.3,2.3,2.3,2.3c0.1,0.1,0.2,0.2,0.4,0.2c0.1,0,0.3-0.1,0.4-0.2l1.4-1.4
		c0.2-0.2,0.2-0.5,0-0.7c-0.2-0.2-0.5-0.2-0.7,0l-1.4,1.4l0.4,0.4l0.4-0.4c0,0,0,0-2.3-2.3c-0.2-0.2-0.5-0.2-0.7,0
		S95.8,34.4,96,34.7L96,34.7z"/>
	<path class="st16" d="M107.6,20.5c0-0.7-0.6-1.3-1.4-1.3c-0.7,0-1.3,0.6-1.4,1.3"/>
	<path class="st33" d="M114.5,22.4v2.7c0,0.4-0.1,0.7-0.3,1c-0.2,0.3-0.5,0.6-0.8,0.8c-0.3,0.1-0.6,0.2-0.9,0.2H99.8
		c-0.3,0-0.7-0.1-0.9-0.2c-0.4-0.2-0.7-0.5-0.9-0.8c-0.2-0.3-0.2-0.6-0.2-1v-2.7c0-1.1,0.9-2,2-2h12.7
		C113.6,20.4,114.5,21.3,114.5,22.4z"/>
	<path class="st35" d="M114.3,26.1c-0.2,0.3-0.5,0.6-0.8,0.8c-0.3,0.1-0.6,0.2-0.9,0.2H99.8c-0.3,0-0.7-0.1-0.9-0.2
		c-0.4-0.2-0.7-0.5-0.9-0.8c0.2-0.7,0.9-1.2,1.7-1.2h12.9C113.4,24.9,114.1,25.4,114.3,26.1z"/>
	<path class="st6" d="M114.4,52.7v0.2c0.4,0,0.7-0.3,0.7-0.7v-0.7c0-0.4-0.3-0.7-0.7-0.7h-11.8c-0.4,0-0.7,0.3-0.7,0.7v0.7
		c0,0.4,0.3,0.7,0.7,0.7h11.8V52.7v-0.2"/>
	<path class="st6" d="M114.3,44.8c0.4,0,0.7-0.3,0.7-0.7v-0.7c0-0.4-0.3-0.7-0.7-0.7h-11.8c-0.4,0-0.7,0.3-0.7,0.7v0.7
		c0,0.4,0.3,0.7,0.7,0.7H114.3"/>
	<path class="st6" d="M114.3,36.8c0.4,0,0.7-0.3,0.7-0.7v-0.7c0-0.4-0.3-0.7-0.7-0.7h-11.8c-0.4,0-0.7,0.3-0.7,0.7v0.7
		c0,0.4,0.3,0.7,0.7,0.7H114.3"/>
	<path class="st16" d="M133.7,150.2c0,2.5-0.3,5-1,7.3c-3.2,12.2-14.3,21.2-27.5,21.3c-0.1,0-0.1,0-0.2,0c-0.4,0-0.9,0-1.3,0
		c-0.4,0-0.8,0-1.2-0.1c-14.6-1.3-26.1-13.6-26.1-28.5c0-15.8,12.8-28.6,28.6-28.6c0,0,0,0,0,0c13.2,0,24.2,8.9,27.6,21
		c0.3,1,0.5,2.1,0.7,3.2C133.6,147.2,133.7,148.7,133.7,150.2z"/>
	<path class="st36" d="M133.7,150.2c0,2.5-0.3,5-1,7.3c-3.2,12.2-14.3,21.2-27.5,21.3c-0.1,0-0.1,0-0.2,0c-0.4,0-0.9,0-1.3,0
		l-4.8-6.6v-1.6l0.5-0.3l-0.5-1v-1.4l0.5-0.3l-0.5-1v-1.2l0.5-0.3l-0.5-1v-10l20.3-15.1l14,6.7C133.6,147.2,133.7,148.7,133.7,150.2
		z"/>
	<path class="st37" d="M222.5,151.8c0,2.5-0.3,5-1,7.3c-0.7,2.6-1.7,5-3,7.2c-3.3,5.5-8.3,9.8-14.3,12.2c-3.1,1.2-6.6,1.9-10.1,1.9
		c-0.1,0-0.1,0-0.2,0c-0.4,0-0.9,0-1.3,0c-0.4,0-0.8,0-1.2-0.1c-1.1-0.1-2.3-0.3-3.4-0.5c-13-2.7-22.7-14.2-22.7-28
		c0-15.8,12.8-28.6,28.6-28.6c0,0,0,0,0,0c1.9,0,3.7,0.2,5.5,0.5c8.4,1.7,15.5,7,19.5,14.3c1.1,1.9,1.9,4,2.5,6.2
		C222.1,146.6,222.5,149.2,222.5,151.8z"/>
	<path class="st38" d="M105.7,127.4c-0.2,0-0.4,0-0.6,0c-0.2,0-0.4,0-0.6,0c-7.9,0.3-14.2,6.9-14.2,14.9c0,4.6,2.2,8.3,5.2,10.9
		c1.7,1.4,2.8,3.4,3,5.6c0.1,0.7,0.1,1.5,0,2.2h6.6h6.6c-0.1-0.8-0.1-1.5,0-2.2c0.2-2.2,1.4-4.1,3-5.6c3-2.6,5.2-6.3,5.2-10.9
		c0-4.1-1.9-8.5-5.4-11.5c-0.4-0.3-0.8-0.6-1.2-0.9C113.3,130,109.8,127.6,105.7,127.4z"/>
	<path class="st39" d="M116.1,132.4c0.4,1.5,0.5,3,0.5,4.5c0,6.1-2.9,11-6.9,14.4c-2.2,1.9-3.7,4.5-4,7.3c-0.1,0.8-0.1,1.6,0,2.4
		h5.9c-0.1-0.8-0.1-1.5,0-2.2c0.2-2.2,1.4-4.1,3-5.6c3-2.6,5.2-6.3,5.2-10.9C119.9,138.9,118.6,135.2,116.1,132.4z"/>
	<path class="st6" d="M110.9,164.2H99.3c-0.5,0-0.8-0.4-0.8-0.8v-0.4c0-0.5,0.4-0.8,0.8-0.8h11.6c0.5,0,0.8,0.4,0.8,0.8v0.4
		C111.7,163.8,111.4,164.2,110.9,164.2z"/>
	<path class="st6" d="M110.9,166.8H99.3c-0.5,0-0.8-0.4-0.8-0.8v-0.4c0-0.5,0.4-0.8,0.8-0.8h11.6c0.5,0,0.8,0.4,0.8,0.8v0.4
		C111.7,166.4,111.4,166.8,110.9,166.8z"/>
	<path class="st6" d="M110.9,169.4H99.3c-0.5,0-0.8-0.4-0.8-0.8v-0.4c0-0.5,0.4-0.8,0.8-0.8h11.6c0.5,0,0.8,0.4,0.8,0.8v0.4
		C111.7,169,111.4,169.4,110.9,169.4z"/>
	<path class="st6" d="M108.4,174.2h-6.5c-1.9,0-3.4-1.5-3.4-3.4c0-0.5,0.4-0.8,0.8-0.8h11.6c0.5,0,0.8,0.4,0.8,0.8
		C111.7,172.7,110.2,174.2,108.4,174.2z"/>
	<path class="st5" d="M105.5,132.3c0,1.4-1.1,2.5-2.5,2.5c-1.4,0-2.5-1.1-2.5-2.5c0-1.4,1.1-2.5,2.5-2.5
		C104.4,129.8,105.5,130.9,105.5,132.3z"/>
	<path class="st5" d="M99.3,137.3c0.9-0.9,1-2.4,0.1-3.3c-0.9-0.9-2.4-0.9-3.3,0c-0.9,0.9-3.1,3.3-3.4,7.1c-0.4,4.4,2.1,7.5,2.8,8.3
		c0.6,0.7,1.5,0.9,2.3,0.7c0.4-0.1,0.7-0.3,1-0.5c1-0.9,1.1-2.3,0.2-3.3c-0.4-0.5-1.9-2.3-1.7-4.9C97.5,139.3,98.8,137.8,99.3,137.3
		z"/>
	<path class="st40" d="M218.9,138v25c0,1.2-0.1,2.3-0.4,3.3c-3.3,5.5-8.3,9.8-14.3,12.2h-16.4v-0.6c0-1.2,0.2-2.3,0.7-3.3
		c0.3-0.7,0.7-1.4,1.3-2c0.6-0.8,1.4-1.4,2.3-1.9c0.4-0.2,0.9-0.4,1.3-0.6c0.1,0,0.1-0.1,0.2-0.1c-0.7-1.2-1.3-2.6-1.6-4
		c-0.1-0.5-0.2-1-0.2-1.5v0c0-0.5-0.1-1-0.1-1.4v-27c0-0.1,0-0.3,0-0.4c0-0.1,0-0.3,0-0.4l0,0c0-0.1,0-0.1,0-0.2c0,0,0-0.1,0-0.1
		c0-0.1,0-0.1,0-0.2c0-0.1,0-0.2,0-0.4c0-0.1,0-0.2,0-0.3c0-0.1,0-0.2,0.1-0.3c0-0.2,0.1-0.4,0.1-0.6c0-0.1,0-0.2,0.1-0.3
		c0-0.1,0-0.1,0.1-0.2c0,0,0-0.1,0-0.1c0-0.1,0-0.2,0.1-0.2c0-0.1,0-0.2,0.1-0.2c0-0.1,0.1-0.2,0.1-0.2c0-0.1,0.1-0.2,0.1-0.3
		c0.1-0.2,0.1-0.4,0.2-0.6c0.2-0.5,0.5-1.1,0.8-1.6c0-0.1,0.1-0.2,0.1-0.2c0.6-1,1.3-1.9,2.2-2.7c0.1-0.1,0.1-0.1,0.2-0.2
		c0.1-0.1,0.3-0.2,0.4-0.4c0.1,0,0.1-0.1,0.2-0.1c0.3-0.2,0.6-0.5,0.9-0.7c0.2-0.2,0.5-0.3,0.7-0.5c0.1-0.1,0.2-0.1,0.3-0.2
		c0.1,0,0.2-0.1,0.3-0.1l0,0c0.1,0,0.1-0.1,0.2-0.1c0.1-0.1,0.3-0.2,0.5-0.2C207.8,125.4,214.9,130.7,218.9,138z"/>
	<path class="st41" d="M202.4,139.2v16.9c0,4.7-3.8,8.5-8.5,8.5c-4.7,0-8.5-3.8-8.5-8.5v-16.9c0-0.1,0-0.2,0-0.3c0-0.1,0-0.2,0-0.3
		l0,0c0-0.1,0-0.1,0-0.2c0,0,0-0.1,0-0.1c0-0.1,0-0.1,0-0.2c0-0.1,0-0.1,0-0.2c0-0.1,0-0.1,0-0.2c0-0.1,0-0.2,0.1-0.4
		c0-0.1,0-0.1,0-0.2c0,0,0-0.1,0-0.1c0,0,0-0.1,0-0.1c0,0,0-0.1,0-0.1c0-0.1,0-0.1,0-0.2c0-0.1,0-0.1,0.1-0.2c0-0.1,0-0.1,0.1-0.2
		c0.2-0.5,0.4-0.9,0.6-1.4c0-0.1,0.1-0.1,0.1-0.2c0.4-0.6,0.8-1.2,1.4-1.7c0,0,0.1-0.1,0.1-0.1c0.1-0.1,0.2-0.2,0.3-0.2
		c0,0,0.1-0.1,0.1-0.1c0.2-0.2,0.4-0.3,0.6-0.4c0.1-0.1,0.3-0.2,0.5-0.3c0.1,0,0.1-0.1,0.2-0.1c0.1,0,0.1-0.1,0.2-0.1l0,0
		c0,0,0.1,0,0.1-0.1c0.1-0.1,0.3-0.1,0.4-0.2c0,0,0.1,0,0.1-0.1c0.1,0,0.1-0.1,0.2-0.1c0.1,0,0.1,0,0.2-0.1c0.1,0,0.2-0.1,0.3-0.1
		c0,0,0.1,0,0.1,0c0.1,0,0.2-0.1,0.2-0.1c0.1,0,0.2,0,0.2-0.1c0.1,0,0.2-0.1,0.4-0.1c0,0,0.1,0,0.1,0c0,0,0.1,0,0.1,0
		c0,0,0.1,0,0.1,0c0,0,0.1,0,0.1,0c0,0,0,0,0,0c0.1,0,0.1,0,0.2,0c0.1,0,0.1,0,0.2,0c0,0,0,0,0,0c0,0,0.1,0,0.1,0c0,0,0.1,0,0.1,0
		c0,0,0,0,0,0c0.1,0,0.1,0,0.2,0c0.1,0,0.1,0,0.2,0c0.1,0,0.1,0,0.2,0c2.4,0,4.5,1,6,2.5C201.4,134.7,202.4,136.9,202.4,139.2z"/>
	<path class="st21" d="M200.1,140.8v12.4c0,3.5-2.8,6.2-6.3,6.2c-3.5,0-6.3-2.8-6.3-6.2v-12.4c0-0.1,0-0.1,0-0.2c0-0.1,0-0.1,0-0.2
		l0,0c0,0,0-0.1,0-0.1c0,0,0-0.1,0-0.1c0-0.1,0-0.1,0-0.2c0-0.1,0-0.1,0-0.2c0-0.1,0-0.1,0-0.2c0-0.1,0-0.2,0.1-0.3c0,0,0-0.1,0-0.1
		c0,0,0-0.1,0-0.1c0,0,0,0,0-0.1c0,0,0-0.1,0-0.1c0,0,0-0.1,0-0.1c0,0,0-0.1,0-0.1c0,0,0-0.1,0-0.1c0.1-0.3,0.3-0.7,0.5-1
		c0,0,0-0.1,0.1-0.1c0.3-0.5,0.6-0.9,1-1.3c0,0,0.1-0.1,0.1-0.1c0.1-0.1,0.1-0.1,0.2-0.2c0,0,0,0,0.1-0.1c0.1-0.1,0.3-0.2,0.4-0.3
		c0.1-0.1,0.2-0.1,0.3-0.2c0,0,0.1,0,0.1-0.1c0,0,0.1,0,0.1-0.1l0,0c0,0,0.1,0,0.1-0.1c0.1-0.1,0.2-0.1,0.3-0.1c0,0,0.1,0,0.1,0
		c0,0,0.1,0,0.1-0.1c0,0,0.1,0,0.1-0.1c0.1,0,0.2-0.1,0.3-0.1c0,0,0,0,0.1,0c0.1,0,0.1,0,0.2-0.1c0.1,0,0.1,0,0.2,0
		c0.1,0,0.2,0,0.3-0.1c0,0,0.1,0,0.1,0c0,0,0.1,0,0.1,0c0,0,0,0,0.1,0c0,0,0.1,0,0.1,0l0,0c0,0,0.1,0,0.1,0c0,0,0.1,0,0.1,0l0,0
		c0,0,0.1,0,0.1,0c0,0,0.1,0,0.1,0l0,0c0,0,0.1,0,0.1,0c0,0,0.1,0,0.1,0c0,0,0.1,0,0.1,0c1.7,0,3.3,0.7,4.4,1.8
		C199.4,137.5,200.1,139.1,200.1,140.8z"/>
	<path class="st21" d="M207.6,153c0,0.5-0.2,0.9-0.5,1.2c-0.3,0.3-0.7,0.5-1.2,0.5h0v1.6c0,5.3-3.5,9.9-8.3,11.4v0.7
		c0,0.9-0.7,1.6-1.6,1.6h-4.2c-0.9,0-1.6-0.7-1.6-1.6v-0.7c-4.8-1.6-8.3-6.1-8.3-11.4v-1.6h0c-0.9,0-1.7-0.8-1.7-1.7
		c0-0.5,0.2-0.9,0.5-1.2c0.3-0.3,0.7-0.5,1.2-0.5h2.1v4.8c0,5.5,4.5,10,10,10c5.5,0,10-4.5,10-10v-4.8h2.1
		C206.8,151.3,207.6,152.1,207.6,153z"/>
	<path class="st21" d="M201.4,174.3v0.3h-15.3v-0.3c0-2,1.6-3.7,3.7-3.7h7.9C199.8,170.7,201.4,172.3,201.4,174.3z"/>
	<path class="st23" d="M201.3,174.6h-15c0.6-1.2,1.8-2,3.3-2h8.5C199.5,172.6,200.7,173.4,201.3,174.6z"/>
	<path class="st0" d="M190.4,139.6c0,0.4-0.2,0.7-0.4,1c-0.3,0.3-0.6,0.4-1,0.4h-3.7v-1.8c0-0.4,0-0.7,0.1-1.1h3.6
		C189.7,138.1,190.4,138.8,190.4,139.6z"/>
	<path class="st0" d="M190.4,143.3c0,0.4-0.2,0.8-0.4,1c-0.3,0.3-0.6,0.4-1,0.4h-3.7v-2.9h3.7C189.7,141.9,190.4,142.5,190.4,143.3z
		"/>
	<path class="st0" d="M190.4,147c0,0.4-0.2,0.8-0.4,1c-0.3,0.3-0.6,0.4-1,0.4h-3.7v-2.9h3.7C189.7,145.6,190.4,146.2,190.4,147z"/>
	<path class="st0" d="M197.3,139.6c0,0.4,0.2,0.7,0.4,1c0.3,0.3,0.6,0.4,1,0.4h3.7v-1.8c0-0.4,0-0.7-0.1-1.1h-3.6
		C197.9,138.1,197.3,138.8,197.3,139.6z"/>
	<path class="st0" d="M197.3,143.3c0,0.4,0.2,0.8,0.4,1c0.3,0.3,0.6,0.4,1,0.4h3.7v-2.9h-3.7C197.9,141.9,197.3,142.5,197.3,143.3z"
		/>
	<path class="st0" d="M197.3,147c0,0.4,0.2,0.8,0.4,1c0.3,0.3,0.6,0.4,1,0.4h3.7v-2.9h-3.7C197.9,145.6,197.3,146.2,197.3,147z"/>
	<path class="st42" d="M201,156.1h-14.4c-1.3,0-2.4-1.1-2.4-2.4v0c0-1.3,1.1-2.4,2.4-2.4H201c1.3,0,2.4,1.1,2.4,2.4v0
		C203.4,155,202.3,156.1,201,156.1z"/>
	<path class="st37" d="M309.8,257.1c0,2.5-0.3,5-1,7.3c-0.7,2.6-1.7,5-3,7.2c-2.6,4.3-6.2,7.9-10.6,10.4c-1.2,0.7-2.4,1.3-3.7,1.8
		c-3.1,1.2-6.6,1.9-10.1,1.9c-0.1,0-0.1,0-0.2,0c-0.4,0-0.9,0-1.3,0c-0.4,0-0.8,0-1.2-0.1c-1.1-0.1-2.3-0.3-3.4-0.5
		c-13-2.7-22.7-14.2-22.7-28c0-15.8,12.8-28.6,28.6-28.6c0,0,0,0,0,0c1.9,0,3.7,0.2,5.5,0.5c8.4,1.7,15.5,7,19.5,14.3
		c0.8,1.4,1.4,2.8,1.9,4.3c0.2,0.6,0.4,1.3,0.6,1.9C309.5,251.9,309.8,254.5,309.8,257.1z"/>
	<path class="st40" d="M309.8,257.1c0,2.5-0.3,5-1,7.3c-0.7,2.6-1.7,5-3,7.2c-2.6,4.3-6.2,7.9-10.6,10.4h-19.1
		c-4.8,0-8.7-3.9-8.7-8.7v-17.2c0-4.8,3.9-8.7,8.7-8.7h32.1c0.2,0.6,0.4,1.3,0.6,1.9C309.5,251.9,309.8,254.5,309.8,257.1z"/>
	<path class="st4" d="M260.3,250.8c0-4.2,2.9-7.6,6.5-7.6h28.6c3.6,0,6.5,3.4,6.5,7.6"/>
	<path class="st4" d="M260.3,264.8c0,4.2,2.9,7.6,6.5,7.6h28.6c3.6,0,6.5-3.4,6.5-7.6"/>
	<path class="st7" d="M302,250.8h-9.7c-1.3-2.5-3.7-4.1-6.4-4.1h-24.6c1.2-2.1,3.2-3.5,5.5-3.5h28.6
		C299.1,243.2,302,246.6,302,250.8z"/>
	<path class="st7" d="M260.3,264.8h9.7c1.3,2.5,3.7,4.1,6.4,4.1H301c-1.2,2.1-3.2,3.5-5.5,3.5h-28.6
		C263.3,272.5,260.3,269.1,260.3,264.8z"/>
	<path class="st43" d="M299.9,265.8h-37.5c-1.8,0-3.3-1.5-3.3-3.3v-1.8c0-1.8,1.5-3.3,3.3-3.3h37.5c1.8,0,3.3,1.5,3.3,3.3v1.8
		C303.3,264.3,301.8,265.8,299.9,265.8z"/>
	<path class="st44" d="M303.2,262.8c-0.2,1.7-1.6,2.9-3.3,2.9h-37.5c-1.7,0-3.1-1.3-3.3-2.9c0.6,0.8,1.6,1.3,2.7,1.3h38.8
		C301.6,264.1,302.6,263.6,303.2,262.8z"/>
	<path class="st45" d="M301.9,258.6c-1.5,0.5-2,2.4-3.8,2.1c-1.8-0.2-2.3-2.2-4.1-2.1c-0.2,0-0.5,0-0.7,0c-0.2,0-0.4,0-0.7,0
		c-1.6,0.3-1.9,1.9-3.5,2.1s-2.2-1.3-3.4-1.9c-0.4-0.1-0.7,0.1-1,0.2c-0.2,0.1-0.4,0.2-0.6,0.4c-0.6,0.4-1.1,0.8-1.9,0.9
		c-1.8,0.2-3-2.2-4.5-0.8c-0.2,0.2-0.4,0.3-0.5,0.5c-0.4,0.3-0.8,0.6-1.3,0.7c-0.2,0-0.5,0-0.7,0c-1.2-0.3-2.2-1.7-3.6-0.9
		c-0.3,0.1-0.5,0.2-0.7,0.2c-1.2,0.1-2.3-0.7-3.4-1c-0.5-0.1-0.9,0.1-1.3,0.4c-0.2,0.1-0.4,0.2-0.6,0.4c-0.8,0.5-1.7,0.8-2.7,0.3
		c-0.9-0.5-1.8-1.2-2.8-1.5c-0.2-0.1-0.3-0.2-0.4-0.3c-0.3-0.2-0.4-0.5-0.4-0.9v-2.3c0-0.7,0.6-1.2,1.4-1.2c0,0,0.6,0,1.6,0
		c0.2,0,0.4,0,0.7,0c0.6,0,1.1,0,1.6,0c0.3,0,0.6,0,1,0c0.3,0,0.6,0,0.9,0c0.3,0,0.6,0,1,0c1.7,0,3.4,0,5,0c0.3,0,0.5,0,0.8,0
		c1.8,0,3.6,0,5.4,0c0.2,0,0.4,0,0.7,0c6,0,12.1,0,16.6,0c0.3,0,0.7,0,1,0c1.1,0,2.1,0,3.2,0c0.2,0,0.4,0,0.6,0c0.9,0,1.4,0,1.4,0
		c0.8,0,1.4,0.5,1.4,1.2v2.3c0,0.3-0.2,0.6-0.4,0.9c-0.1,0.1-0.3,0.2-0.4,0.3C302.3,258.6,302.1,258.6,301.9,258.6z"/>
	<path class="st46" d="M301.5,254.8c-1.9,0.7-3.9-0.5-5.7,0.4c-0.2,0.1-0.4,0.1-0.6,0.1c-1.6,0.2-2.9-0.9-4.5-0.9
		c-0.2,0-0.4,0.1-0.6,0.1c-1.3,0.4-2.3,1.5-3.5,1.6c-1.4,0.1-2.3-1.4-3.9-1.6c-0.3,0-0.6,0-0.8,0.1c-1.2,0.4-2,2-3.4,2
		c-1.5,0-2.3-2.5-4.1-2.1c-0.3,0.1-0.5,0.1-0.8,0.3c-1,0.5-1.8,1.3-2.8,1.3c-1.1,0.1-1.6-0.9-2.6-1.4c-0.5-0.2-0.9-0.1-1.4-0.1
		c-0.3,0.1-0.6,0.1-0.9,0.2c-2.3,0.4-4.6,0.7-6.6-0.9c-0.2-0.2-0.3-0.4-0.4-0.6c-0.1-0.2-0.2-0.5-0.2-0.8v-0.2
		c0-1.1,0.9-1.9,1.9-1.9h40.7c1.1,0,1.9,0.9,1.9,1.9v0.2c0,0.3-0.1,0.5-0.2,0.8c-0.1,0.2-0.2,0.4-0.4,0.6c-0.2,0.2-0.4,0.3-0.6,0.5
		C302,254.6,301.8,254.7,301.5,254.8z"/>
	<path class="st47" d="M268.7,246.7c-0.2,0.6-0.5,0.9-0.8,0.8s-0.4-0.6-0.3-1.2c0.1-0.3,0.2-0.5,0.4-0.7c0.1-0.1,0.2-0.2,0.3-0.3
		l0.4-0.6l0,0.8c0,0.1,0,0.2,0,0.3C268.8,246.1,268.8,246.4,268.7,246.7z"/>
	<path class="st47" d="M274.3,245.6c0,0.6-0.2,1.1-0.5,1.1c-0.3,0-0.6-0.4-0.6-1c0-0.3,0-0.6,0.1-0.8c0.1-0.1,0.1-0.3,0.1-0.4
		l0.2-0.7l0.3,0.7c0,0.1,0.1,0.2,0.2,0.3C274.2,245,274.3,245.3,274.3,245.6z"/>
	<path class="st47" d="M278.8,248c-0.1,0.6-0.4,1-0.7,1c-0.3,0-0.5-0.5-0.5-1.1c0-0.3,0.1-0.6,0.2-0.7c0.1-0.1,0.1-0.2,0.2-0.4
		l0.3-0.7l0.2,0.8c0,0.1,0.1,0.2,0.1,0.3C278.8,247.4,278.8,247.7,278.8,248z"/>
	<path class="st47" d="M283.7,247c0.1,0.6-0.1,1.1-0.4,1.1c-0.3,0.1-0.6-0.4-0.7-0.9c-0.1-0.3,0-0.6,0-0.8c0-0.1,0.1-0.3,0.1-0.4
		l0.1-0.8l0.4,0.7c0.1,0.1,0.1,0.2,0.2,0.3C283.5,246.4,283.6,246.7,283.7,247z"/>
	<path class="st47" d="M294.9,246.9c0.2,0.5,0.1,1.1-0.2,1.2c-0.3,0.1-0.7-0.3-0.9-0.8c-0.1-0.3-0.1-0.6-0.1-0.8c0-0.1,0-0.3,0-0.4
		l0-0.8l0.5,0.6c0.1,0.1,0.2,0.2,0.2,0.3C294.7,246.3,294.8,246.6,294.9,246.9z"/>
	<path class="st47" d="M289.4,248c-0.1,0.6-0.3,1-0.7,1c-0.3,0-0.5-0.5-0.5-1.1c0-0.3,0.1-0.6,0.2-0.7c0.1-0.1,0.1-0.2,0.2-0.4
		l0.3-0.7l0.2,0.8c0,0.1,0.1,0.2,0.1,0.3C289.4,247.4,289.4,247.7,289.4,248z"/>
	<path class="st16" d="M309.8,151.3c0,2.5-0.3,5-1,7.3c-0.7,2.6-1.7,5-3,7.2c-0.6,1-1.2,1.9-1.8,2.7c-3.2,4.2-7.5,7.5-12.5,9.4
		c-0.2,0.1-0.5,0.2-0.7,0.3c-3,1.1-6.1,1.6-9.5,1.7c-0.1,0-0.1,0-0.2,0c-0.4,0-0.9,0-1.3,0c-0.4,0-0.8,0-1.2-0.1
		c-1.1-0.1-2.3-0.3-3.4-0.5c-13-2.7-22.7-14.2-22.7-28c0-15.8,12.8-28.6,28.6-28.6h0c1.9,0,3.7,0.2,5.5,0.5c2.1,0.4,4,1,5.9,1.8
		c4.5,2,8.4,5.1,11.4,9c0.8,1.1,1.6,2.3,2.3,3.5c1.1,1.9,1.9,4,2.5,6.2C309.5,146.1,309.8,148.7,309.8,151.3z"/>
	<path class="st31" d="M304,134v34.6c-3.2,4.2-7.5,7.5-12.5,9.4c-0.2,0.1-0.5,0.2-0.7,0.3h-7.7c-3.1,0-5.7-2.1-6.5-5
		c0-0.2-0.1-0.3-0.1-0.5v0c-0.1-0.4-0.1-0.8-0.1-1.2v-39.8c0-1,0.2-2,0.6-2.8c1.1-2.3,3.4-3.9,6.1-3.9h9.5
		C297.1,127,301.1,130.1,304,134z"/>
	<path class="st48" d="M286,173.3h-9.6c-3.7,0-6.7-3-6.7-6.7v-30.9c0-3.7,3-6.7,6.7-6.7h9.6c3.7,0,6.7,3,6.7,6.7v30.9
		C292.7,170.3,289.7,173.3,286,173.3z"/>
	<path class="st4" d="M286,128.9c3.7,0,6.7,3,6.7,6.7v30.9c0,3.7-3,6.7-6.7,6.7h-9.6L286,128.9z"/>
	<path class="st3" d="M292.7,135.7h-23c0-3.7,3-6.7,6.7-6.7h9.6C289.7,128.9,292.7,132,292.7,135.7z"/>
	<path class="st49" d="M286,173.3h-9.6c-3.7,0-6.7-3-6.7-6.7v-2.5h23v2.5C292.7,170.3,289.7,173.3,286,173.3z"/>
	<path class="st0" d="M283.4,168.7c0,1.4-1.1,2.6-2.6,2.6c-1.4,0-2.6-1.1-2.6-2.6c0-1.4,1.1-2.6,2.6-2.6
		C282.2,166.1,283.4,167.3,283.4,168.7z"/>
	<path class="st0" d="M281.7,134.1h-6.6c-0.5,0-0.9-0.4-0.9-0.9c0-0.5,0.4-0.9,0.9-0.9h6.6c0.5,0,0.9,0.4,0.9,0.9
		C282.6,133.7,282.2,134.1,281.7,134.1z"/>
	<path class="st0" d="M285.9,133.3c0,0.6-0.5,1-1,1c-0.6,0-1-0.5-1-1s0.5-1,1-1C285.5,132.3,285.9,132.8,285.9,133.3z"/>
	<path class="st6" d="M266.7,145.5c-0.7,0.2-1.4,0.6-1.8,1.1c-0.5,0.5-0.8,1.2-0.8,2c0,0.1,0,0.2,0,0.3c0,0.8,0.2,1.5,0.7,2.1
		c0.4,0.6,1,1.1,1.8,1.3c0.3,0.1,0.7-0.1,0.8-0.4c0.1-0.3-0.1-0.7-0.4-0.8c-0.5-0.2-0.9-0.5-1.1-0.8c-0.3-0.4-0.4-0.8-0.4-1.3
		c0-0.1,0-0.1,0-0.2c0-0.5,0.2-0.9,0.5-1.2c0.3-0.3,0.7-0.6,1.2-0.7c0.3-0.1,0.6-0.4,0.5-0.8C267.4,145.6,267,145.4,266.7,145.5z"/>
	<path class="st6" d="M266.3,142.2c-1.5,0.4-2.7,1.2-3.6,2.2c-0.9,1.1-1.5,2.4-1.6,3.9c0,0.2,0,0.4,0,0.6c0,1.5,0.5,2.9,1.3,4.1
		c0.9,1.2,2.1,2.1,3.5,2.6c0.4,0.1,0.8-0.1,1-0.5c0.1-0.4-0.1-0.8-0.5-1c-1.1-0.4-2.1-1.1-2.8-2c-0.7-0.9-1-2-1-3.2
		c0-0.1,0-0.3,0-0.4c0.1-1.1,0.6-2.2,1.3-3c0.7-0.8,1.7-1.5,2.9-1.8c0.4-0.1,0.7-0.5,0.6-0.9C267.1,142.4,266.7,142.1,266.3,142.2
		L266.3,142.2z"/>
	<path class="st6" d="M295.4,146.8c0.5,0.1,0.9,0.4,1.2,0.7c0.3,0.3,0.5,0.8,0.5,1.2c0,0.1,0,0.1,0,0.2c0,0.5-0.2,0.9-0.4,1.3
		c-0.3,0.4-0.7,0.7-1.1,0.8c-0.3,0.1-0.5,0.5-0.4,0.8c0.1,0.3,0.5,0.5,0.8,0.4c0.7-0.2,1.4-0.7,1.8-1.3c0.4-0.6,0.7-1.3,0.7-2.1
		c0-0.1,0-0.2,0-0.3c-0.1-0.7-0.4-1.4-0.8-2c-0.5-0.5-1.1-0.9-1.8-1.1c-0.3-0.1-0.7,0.1-0.8,0.5C294.8,146.3,295,146.7,295.4,146.8z
		"/>
	<path class="st6" d="M295.7,143.7c1.1,0.3,2.1,0.9,2.9,1.8c0.7,0.8,1.2,1.9,1.3,3c0,0.1,0,0.3,0,0.4c0,1.1-0.4,2.2-1,3.2
		c-0.7,0.9-1.6,1.6-2.8,2c-0.4,0.1-0.6,0.6-0.5,1c0.1,0.4,0.6,0.6,1,0.5c1.5-0.5,2.7-1.4,3.5-2.6c0.9-1.2,1.3-2.6,1.3-4.1
		c0-0.2,0-0.4,0-0.6c-0.1-1.5-0.7-2.8-1.6-3.9c-0.9-1.1-2.2-1.9-3.6-2.2c-0.4-0.1-0.8,0.1-0.9,0.6S295.3,143.6,295.7,143.7
		L295.7,143.7z"/>
</g>
</svg>
